<svg width="75" height="75" viewBox="0 0 75 75" fill="none" xmlns="http://www.w3.org/2000/svg">
<rect width="75" height="75" rx="15" fill="#1E202D"/>
<path d="M37.1162 59.7602C24.9204 59.7602 15 49.9457 15 37.8801C15 25.8145 24.9204 16 37.1162 16C49.3119 16 59.2323 25.8145 59.2323 37.8801C59.2323 49.9457 49.3119 59.7602 37.1162 59.7602ZM37.1162 26.94C31.0193 26.94 26.0581 31.8483 26.0581 37.8801C26.0581 43.9118 31.0193 48.8201 37.1162 48.8201C43.213 48.8201 48.1742 43.9118 48.1742 37.8801C48.1742 31.8483 43.213 26.94 37.1162 26.94Z" fill="url(#paint0_linear_337_512)"/>
<path style="mix-blend-mode:overlay" d="M37.1162 59.7602C24.9204 59.7602 15 49.9457 15 37.8801C15 25.8145 24.9204 16 37.1162 16C49.3119 16 59.2323 25.8145 59.2323 37.8801C59.2323 49.9457 49.3119 59.7602 37.1162 59.7602ZM37.1162 26.94C31.0193 26.94 26.0581 31.8483 26.0581 37.8801C26.0581 43.9118 31.0193 48.8201 37.1162 48.8201C43.213 48.8201 48.1742 43.9118 48.1742 37.8801C48.1742 31.8483 43.213 26.94 37.1162 26.94Z" fill="url(#paint1_linear_337_512)"/>
<path d="M55.4726 60.0001C54.0584 60.0001 52.6421 59.4657 51.564 58.397L49.2885 56.1458C45.7096 58.479 41.4841 59.7582 37.1162 59.7582C24.9204 59.7603 15 49.9458 15 37.8802C15 34.859 17.4753 32.4102 20.529 32.4102C23.5828 32.4102 26.0581 34.859 26.0581 37.8802C26.0581 43.9119 31.0193 48.8202 37.1162 48.8202C40.2975 48.8202 43.3278 47.4632 45.4288 45.0943C46.4368 43.9582 47.8765 43.285 49.4034 43.2366C50.9281 43.1882 52.4103 43.7668 53.4927 44.8355L59.3812 50.6611C61.5396 52.7965 61.5396 56.2615 59.3812 58.397C58.3009 59.4657 56.8867 60.0001 55.4726 60.0001Z" fill="url(#paint2_linear_337_512)"/>
<defs>
<linearGradient id="paint0_linear_337_512" x1="26.0602" y1="18.9349" x2="47.8181" y2="57.0275" gradientUnits="userSpaceOnUse">
<stop stop-color="#5FE6FA"/>
<stop offset="0.65" stop-color="#6933FF"/>
</linearGradient>
<linearGradient id="paint1_linear_337_512" x1="26.0602" y1="18.9349" x2="47.8181" y2="57.0275" gradientUnits="userSpaceOnUse">
<stop stop-color="#5FE6FA" stop-opacity="0"/>
<stop offset="0.45" stop-color="#6933FF" stop-opacity="0"/>
<stop offset="0.75" stop-color="#6933FF"/>
</linearGradient>
<linearGradient id="paint2_linear_337_512" x1="34.9492" y1="29.8098" x2="40.6809" y2="62.6657" gradientUnits="userSpaceOnUse">
<stop stop-color="#65F4FA" stop-opacity="0"/>
<stop offset="0.22" stop-color="#66C1FA" stop-opacity="0"/>
<stop offset="0.64" stop-color="#6933FF"/>
</linearGradient>
</defs>
</svg>
