<svg width="50" height="50" viewBox="0 0 50 50" fill="none" xmlns="http://www.w3.org/2000/svg">
<circle cx="25" cy="25" r="25" fill="black"/>
<path d="M30.5291 25.5619C30.5081 23.2844 32.4328 22.1909 32.5177 22.1402C31.4362 20.5928 29.7499 20.3771 29.1518 20.3512C27.716 20.21 26.3498 21.1783 25.6236 21.1783C24.8975 21.1783 23.7718 20.375 22.5843 20.3976C21.0172 20.4181 19.5782 21.2873 18.7714 22.6514C17.147 25.4055 18.3543 29.4881 19.9401 31.7214C20.7127 32.8149 21.6341 34.0431 22.8448 33.9989C24.0135 33.9547 24.4549 33.2624 25.8653 33.2624C27.2757 33.2624 27.6719 33.9989 28.9068 33.9806C30.1616 33.9547 30.9573 32.8612 31.7231 31.7678C32.6104 30.4986 32.979 29.2703 33 29.2056C32.9724 29.1959 30.5522 28.2879 30.528 25.5619H30.5291Z" fill="white"/>
<path d="M28.2082 18.8727C28.8527 18.1125 29.2864 17.0536 29.1672 16C28.2413 16.0345 27.119 16.605 26.4557 17.362C25.8587 18.0381 25.3345 19.1186 25.4768 20.1495C26.5087 20.2261 27.567 19.6351 28.2082 18.8727Z" fill="white"/>
</svg>
