<svg width="38" height="49" viewBox="0 0 38 49" fill="none" xmlns="http://www.w3.org/2000/svg">
<path d="M35.6152 15.7481C34.3003 15.7481 33.2303 16.7666 33.2303 18.0183V22.933C33.2303 26.5947 31.7137 30.0284 28.9604 32.6003C26.2076 35.1717 22.5692 36.5591 18.7243 36.4794C11.029 36.3404 4.769 30.1555 4.769 22.6912V18.0183C4.769 16.7666 3.69898 15.7481 2.38416 15.7481C1.06934 15.7481 0 16.7666 0 18.0183V22.6708C0 31.8862 7.23454 39.7326 16.6152 40.8749V44.4582H7.92322C6.6084 44.4582 5.53839 45.4767 5.53839 46.7291C5.53839 47.9815 6.6084 48.9993 7.92322 48.9993H30.0774C31.3923 48.9993 32.4623 47.9808 32.4623 46.7291C32.4623 45.4774 31.3923 44.4582 30.0774 44.4582H21.3848V40.8782C30.7661 39.7504 38 32.0147 38 22.9324V18.0177C38 16.7659 36.93 15.7474 35.6152 15.7474V15.7481Z" fill="white"/>
<path d="M18.9999 32.2848C24.7932 32.2848 29.5064 27.5835 29.5064 21.8038V10.4809C29.5064 4.70124 24.7932 0 18.9999 0C13.2066 0 8.49414 4.70124 8.49414 10.4809V21.8038C8.49414 27.5829 13.2073 32.2848 19.0006 32.2848H18.9999Z" fill="white"/>
</svg>
