<svg width="231" height="51" viewBox="0 0 231 51" fill="none" xmlns="http://www.w3.org/2000/svg">
<path d="M112.501 35.4849H94.7569C94.3527 35.4849 94.0176 35.8249 94.0176 36.2349C94.0176 36.6449 94.3527 36.9849 94.7569 36.9849H112.501C112.905 36.9849 113.24 36.6449 113.24 36.2349C113.24 35.8249 112.905 35.4849 112.501 35.4849Z" fill="#040404"/>
<path d="M139.423 7H90.5773C89.7098 7 89 7.71962 89 8.59916V43.4008C89 44.2804 89.7098 45 90.5773 45H139.423C140.29 45 141 44.2804 141 43.4008V8.59916C141 7.71962 140.29 7 139.423 7ZM139.423 8.59916V15.5955H90.5773V8.59916H139.423ZM90.5773 43.4008V21.4424H139.423V43.4008H90.5773Z" fill="#040404"/>
</svg>
