<svg width="16" height="16" viewBox="0 0 16 16" fill="none" xmlns="http://www.w3.org/2000/svg">
<path d="M14.1681 16C14.0762 16 13.9834 15.9869 13.892 15.9607L13.84 15.9458L11.9195 14.962C11.8951 14.9615 11.8717 14.9676 11.8492 14.9802C10.6753 15.6245 9.34525 15.964 7.99789 15.964C7.97305 15.964 7.94868 15.964 7.92385 15.964C5.79573 15.9444 3.80211 15.1065 2.31136 13.6046C0.821066 12.1023 0 10.1057 0 7.982C0 3.5807 3.58888 0 8.00023 0C10.1335 0 12.1374 0.821064 13.6427 2.31263C15.148 3.8042 15.9855 5.79748 16.0005 7.92542C16.0131 9.71484 15.4451 11.4103 14.3579 12.828C14.3433 12.8467 14.334 12.8672 14.3302 12.8883L15.1288 14.8058L15.1391 14.8741C15.1888 15.2061 15.0674 15.5366 14.8139 15.7578C14.632 15.9163 14.4029 16.0005 14.1685 16.0005L14.1681 16ZM8.00023 1.12218C4.20937 1.12218 1.12475 4.1993 1.12475 7.982C1.12475 9.80788 1.83006 11.5239 3.11086 12.8144C4.39167 14.1049 6.10504 14.8245 7.93462 14.8413C9.11373 14.853 10.2807 14.5603 11.3075 13.9969C11.6036 13.8342 11.9439 13.7958 12.2654 13.8894L12.3174 13.9043L13.8649 14.6969L13.2266 13.1637L13.2163 13.0954C13.1661 12.7625 13.2566 12.416 13.4642 12.1458C14.3982 10.9277 14.886 9.47123 14.8753 7.9329C14.8626 6.10328 14.1432 4.38961 12.8498 3.10845C11.5563 1.82729 9.83404 1.12172 7.99977 1.12172L8.00023 1.12218Z" fill="#040404"/>
</svg>
