<svg width="20" height="20" viewBox="0 0 20 20" fill="none" xmlns="http://www.w3.org/2000/svg">
<path d="M10.971 9.99914L15.8005 5.17169C16.0682 4.90407 16.0682 4.46833 15.8005 4.20071C15.5328 3.9331 15.0968 3.9331 14.8291 4.20071L9.99957 9.02816L5.17005 4.20415C4.90232 3.9331 4.46982 3.9331 4.20209 4.20415C3.93436 4.4752 3.93092 4.90407 4.20209 5.17169L9.03161 9.99914L4.20209 14.8266C3.93436 15.0942 3.93436 15.53 4.20209 15.7976C4.33596 15.9314 4.51101 16 4.68607 16C4.86113 16 5.03619 15.9314 5.17005 15.7976L9.99957 10.9701L14.8291 15.7976C14.963 15.9314 15.138 16 15.3131 16C15.4881 16 15.6632 15.9314 15.7971 15.7976C16.0648 15.53 16.0648 15.0942 15.7971 14.8266L10.9675 9.99914H10.971Z" fill="#ADADAD"/>
</svg>
