<svg width="20" height="20" viewBox="0 0 20 20" fill="none" xmlns="http://www.w3.org/2000/svg">
<path d="M11.4565 9.99871L18.7007 2.75754C19.1023 2.35611 19.1023 1.7025 18.7007 1.30107C18.2991 0.899643 17.6452 0.899643 17.2436 1.30107L9.99936 8.54224L2.75508 1.30622C2.35348 0.899643 1.70474 0.899643 1.30314 1.30622C0.901533 1.71279 0.896385 2.35611 1.30314 2.75754L8.54741 9.99871L1.30314 17.2399C0.901533 17.6413 0.901533 18.2949 1.30314 18.6964C1.50394 18.8971 1.76652 19 2.02911 19C2.29169 19 2.55428 18.8971 2.75508 18.6964L9.99936 11.4552L17.2436 18.6964C17.4444 18.8971 17.707 19 17.9696 19C18.2322 19 18.4948 18.8971 18.6956 18.6964C19.0972 18.2949 19.0972 17.6413 18.6956 17.2399L11.4513 9.99871H11.4565Z" fill="#040404"/>
</svg>
