<svg width="11" height="10" viewBox="0 0 11 10" fill="none" xmlns="http://www.w3.org/2000/svg">
<path d="M4.60652 5.00109L0.582356 9.02353C0.359267 9.24652 0.359267 9.6096 0.582356 9.83259C0.805444 10.0556 1.16868 10.0556 1.39177 9.83259L5.41593 5.81015L9.4401 9.82974C9.66319 10.0556 10.0236 10.0556 10.2466 9.82974C10.4697 9.60389 10.4726 9.24653 10.2466 9.02353L6.22248 5.00109L10.2466 0.978651C10.4697 0.755659 10.4697 0.39258 10.2466 0.169588C10.1351 0.0580921 9.98924 0.000914536 9.84337 0.000914524C9.69751 0.000914511 9.55164 0.058092 9.4401 0.169588L5.41593 4.19203L1.39177 0.169587C1.28022 0.0580913 1.13436 0.000913762 0.988492 0.00091375C0.842626 0.000913737 0.696761 0.0580913 0.585217 0.169587C0.362129 0.392579 0.362129 0.755658 0.585217 0.97865L4.60938 5.00109L4.60652 5.00109Z" fill="#6933FF"/>
</svg>
