<svg width="160" height="160" viewBox="0 0 160 160" fill="none" xmlns="http://www.w3.org/2000/svg">
<rect width="160" height="160" fill="#6933FF"/>
<g clip-path="url(#clip0_46_1985)">
<path d="M86.3294 62.3801C85.8285 62.3801 85.4209 62.7681 85.4209 63.245V65.1173C85.4209 66.5122 84.8431 67.8202 83.7942 68.8C82.7456 69.7796 81.3595 70.3081 79.8948 70.2778C76.9633 70.2248 74.5785 67.8687 74.5785 65.0251V63.245C74.5785 62.7681 74.1709 62.3801 73.67 62.3801C73.1691 62.3801 72.7617 62.7681 72.7617 63.245V65.0174C72.7617 68.528 75.5177 71.5171 79.0913 71.9523V73.3173H75.7801C75.2792 73.3173 74.8716 73.7053 74.8716 74.1824C74.8716 74.6595 75.2792 75.0473 75.7801 75.0473H84.2198C84.7207 75.0473 85.1283 74.6593 85.1283 74.1824C85.1283 73.7056 84.7207 73.3173 84.2198 73.3173H80.9083V71.9535C84.4822 71.5239 87.2379 68.5769 87.2379 65.117V63.2447C87.2379 62.7679 86.8303 62.3799 86.3294 62.3799V62.3801Z" fill="white"/>
<path d="M80.0003 68.6798C82.2072 68.6798 84.0027 66.8889 84.0027 64.6871V60.3736C84.0027 58.1718 82.2072 56.3809 80.0003 56.3809C77.7933 56.3809 75.998 58.1718 75.998 60.3736V64.6871C75.998 66.8886 77.7935 68.6798 80.0005 68.6798H80.0003Z" fill="white"/>
</g>
<rect x="60.9521" y="89.9043" width="1.52381" height="8.38095" rx="0.761905" fill="white"/>
<rect opacity="0.2" x="70.0957" y="84.5713" width="1.52381" height="19.0476" rx="0.761905" fill="white"/>
<rect opacity="0.4" x="79.2383" y="89.9043" width="1.52381" height="8.38095" rx="0.761905" fill="white"/>
<rect opacity="0.6" x="88.3809" y="89.9043" width="1.52381" height="8.38095" rx="0.761905" fill="white"/>
<rect opacity="0.8" x="97.5234" y="89.9043" width="1.52381" height="8.38095" rx="0.761905" fill="white"/>
<rect opacity="0.6" width="160" height="160" fill="black"/>
<g clip-path="url(#clip1_46_1985)">
<path d="M89.4362 79.0576L80.5628 74.1034L71.6894 69.1491C70.9397 68.7289 70 69.2527 70 70.0911V89.9101C70 90.7485 70.9397 91.2722 71.6894 90.854L80.5628 85.8997L89.4362 80.9455C90.1879 80.5253 90.1879 79.4778 89.4362 79.0576Z" fill="white"/>
</g>
<defs>
<clipPath id="clip0_46_1985">
<rect width="14.4762" height="18.6667" fill="white" transform="translate(72.7617 56.3809)"/>
</clipPath>
<clipPath id="clip1_46_1985">
<rect width="20" height="22" fill="white" transform="translate(70 69)"/>
</clipPath>
</defs>
</svg>
