<svg width="20" height="20" viewBox="0 0 20 20" fill="none" xmlns="http://www.w3.org/2000/svg">
<path d="M10 5C6.972 5 4.192 6.8 2 9.8C4.192 12.8 6.972 14.6 10 14.6C13.028 14.6 15.808 12.8 18 9.8C15.808 6.8 13.028 5 10 5ZM10 13C8.232 13 6.8 11.568 6.8 9.8C6.8 8.032 8.232 6.6 10 6.6C11.768 6.6 13.2 8.032 13.2 9.8C13.2 11.568 11.768 13 10 13Z" fill="#777777"/>
<path d="M10.0001 11.4C10.7953 11.4 11.4401 10.6836 11.4401 9.79995C11.4401 8.9163 10.7953 8.19995 10.0001 8.19995C9.20477 8.19995 8.56006 8.9163 8.56006 9.79995C8.56006 10.6836 9.20477 11.4 10.0001 11.4Z" fill="#777777"/>
</svg>
