<svg width="16" height="16" viewBox="0 0 16 16" fill="none" xmlns="http://www.w3.org/2000/svg">
<path d="M12.4231 4.87136L14.4196 2.83003L13.5594 2L11.3268 4.27962C10.2666 3.7951 9.15029 3.53695 7.998 3.53695C4.97324 3.53695 2.19255 5.32411 0 8.3027C1.14429 9.85951 2.45261 11.0867 3.86897 11.9048L1.85246 13.966L2.71268 14.796L4.99725 12.4608C5.96149 12.854 6.96574 13.0684 7.998 13.0684C11.0268 13.0684 13.8075 11.2813 16 8.3027C14.9317 6.85312 13.7274 5.68948 12.4191 4.87136H12.4231ZM4.8012 8.3027C4.8012 6.54732 6.23356 5.12554 8.002 5.12554C8.71018 5.12554 9.36634 5.35588 9.89847 5.74508L8.75819 6.90872C8.53013 6.7856 8.27807 6.71412 8.002 6.71412C7.11778 6.71412 6.4016 7.42501 6.4016 8.3027C6.4016 8.59262 6.48562 8.8587 6.62165 9.09302L5.48137 10.2567C5.05726 9.71654 4.8012 9.04139 4.8012 8.3027ZM8.002 11.4799C7.41385 11.4799 6.86172 11.317 6.3896 11.043L7.57789 9.82774C7.71393 9.86348 7.85396 9.89128 8.002 9.89128C8.88622 9.89128 9.6024 9.18039 9.6024 8.3027C9.6024 8.13987 9.57039 7.98498 9.52238 7.83804L10.7107 6.62277C11.0188 7.11126 11.1988 7.68712 11.1988 8.3027C11.1988 10.0581 9.76644 11.4799 7.998 11.4799H8.002Z" fill="#E1E1E1"/>
</svg>
