<svg width="23" height="23" viewBox="0 0 23 23" fill="none" xmlns="http://www.w3.org/2000/svg">
<path d="M10.9882 22.687C4.92878 22.687 0 17.5988 0 11.3435C0 5.08817 4.92878 0 10.9882 0C17.0476 0 21.9764 5.08817 21.9764 11.3435C21.9764 17.5988 17.0476 22.687 10.9882 22.687ZM10.9882 5.67284C7.95848 5.67284 5.49514 8.21801 5.49514 11.3435C5.49514 14.469 7.96059 17.0142 10.9882 17.0142C14.0158 17.0142 16.4812 14.469 16.4812 11.3435C16.4812 8.21801 14.0158 5.67284 10.9882 5.67284Z" fill="url(#paint0_linear_381_247)"/>
<path style="mix-blend-mode:overlay" d="M10.9882 22.687C4.92878 22.687 0 17.5988 0 11.3435C0 5.08817 4.92878 0 10.9882 0C17.0476 0 21.9764 5.08817 21.9764 11.3435C21.9764 17.5988 17.0476 22.687 10.9882 22.687ZM10.9882 5.67284C7.95848 5.67284 5.49514 8.21801 5.49514 11.3435C5.49514 14.469 7.96059 17.0142 10.9882 17.0142C14.0158 17.0142 16.4812 14.469 16.4812 11.3435C16.4812 8.21801 14.0158 5.67284 10.9882 5.67284Z" fill="url(#paint1_linear_381_247)"/>
<path d="M20.1088 22.8109C19.4056 22.8109 18.7024 22.5349 18.1655 21.9806L17.0349 20.8134C15.2559 22.0241 13.1589 22.687 10.9882 22.687C4.92878 22.687 0 17.5988 0 11.3435C0 9.77641 1.22956 8.50708 2.74757 8.50708C4.26558 8.50708 5.49514 9.77641 5.49514 11.3435C5.49514 14.4712 7.96059 17.0142 10.9882 17.0142C12.5693 17.0142 14.0747 16.31 15.119 15.0819C15.6201 14.4929 16.3359 14.1451 17.0939 14.1191C17.8518 14.093 18.5887 14.3929 19.1256 14.9472L22.0521 17.9683C23.1259 19.0768 23.1259 20.8721 22.0521 21.9784C21.5153 22.5327 20.8121 22.8087 20.1088 22.8087V22.8109Z" fill="url(#paint2_linear_381_247)"/>
<defs>
<linearGradient id="paint0_linear_381_247" x1="5.49514" y1="1.52145" x2="17.014" y2="20.848" gradientUnits="userSpaceOnUse">
<stop stop-color="#5FE6FA"/>
<stop offset="0.65" stop-color="#6933FF"/>
</linearGradient>
<linearGradient id="paint1_linear_381_247" x1="5.49514" y1="1.52145" x2="17.014" y2="20.848" gradientUnits="userSpaceOnUse">
<stop stop-color="#5FE6FA" stop-opacity="0"/>
<stop offset="0.45" stop-color="#6933FF" stop-opacity="0"/>
<stop offset="0.75" stop-color="#6933FF"/>
</linearGradient>
<linearGradient id="paint2_linear_381_247" x1="9.91231" y1="7.15951" x2="13.0049" y2="24.1487" gradientUnits="userSpaceOnUse">
<stop stop-color="#65F4FA" stop-opacity="0"/>
<stop offset="0.22" stop-color="#66C1FA" stop-opacity="0"/>
<stop offset="0.64" stop-color="#6933FF"/>
</linearGradient>
</defs>
</svg>
