<svg width="26" height="26" viewBox="0 0 26 26" fill="none" xmlns="http://www.w3.org/2000/svg">
<path d="M25.9793 13.0104C25.9793 10.2713 25.0877 7.55307 23.4912 5.35355L22.9936 4.7518C20.547 1.72227 16.8979 0 13 0C12.0463 0 11.0718 0.103751 10.1388 0.311253C9.86922 0.373504 9.57895 0.456504 9.22647 0.560255C7.25678 1.16201 5.43222 2.24102 3.93939 3.67279C3.58692 4.00479 3.25518 4.35754 2.96491 4.73105L2.48804 5.3328C0.891547 7.55307 0 10.2713 0 13.0104C0 15.7494 0.891547 18.4677 2.48804 20.6672L2.98565 21.269C5.47368 24.2777 9.12281 26 13.0207 26C13.7464 26 14.4721 25.9378 15.177 25.8132C17.7895 25.3775 20.1738 24.174 22.0606 22.3272C22.4131 21.9952 22.7448 21.6425 23.0351 21.269L23.512 20.6672C25.1292 18.4469 26 15.7287 26 13.0104H25.9793ZM24.5072 12.2841H20.319C20.2568 10.5826 20.0287 8.92259 19.6348 7.40782C20.6093 7.05507 21.5215 6.64006 22.3094 6.16281C23.6156 7.94733 24.3828 10.0638 24.5279 12.2841H24.5072ZM24.5072 13.7159C24.362 15.9362 23.5949 18.0527 22.2887 19.8372C21.5008 19.3599 20.6093 18.9449 19.614 18.5922C20.0287 17.0567 20.2568 15.4174 20.2982 13.7159H24.4864H24.5072ZM17.8102 19.5467C17.6858 19.8994 17.5614 20.2107 17.437 20.5012C16.4625 22.7007 15.1356 24.091 13.7049 24.4645V18.9657C15.1356 19.0072 16.5247 19.2147 17.8309 19.5467H17.8102ZM13.6842 7.01357V1.53551C15.1148 1.88827 16.4418 3.29928 17.4163 5.4988C17.5407 5.78931 17.6651 6.12131 17.7895 6.45331C16.4833 6.78532 15.0941 6.99282 13.6635 7.03432L13.6842 7.01357ZM13.6842 8.44533C15.26 8.40383 16.7943 8.17558 18.2249 7.80208C18.5981 9.19234 18.8054 10.7071 18.8469 12.2634H13.6635V8.44533H13.6842ZM19.1786 6.01756C19.0335 5.60255 18.8884 5.22905 18.7432 4.89705C18.2663 3.83879 17.7273 2.94653 17.1053 2.19952L17.1882 2.24102L17.437 2.34477C17.437 2.34477 17.6443 2.42777 17.748 2.49002C17.8309 2.53152 17.9139 2.57302 17.9968 2.59378C18.1005 2.63528 18.2041 2.69753 18.3493 2.78053C18.4115 2.82203 18.4737 2.84278 18.5359 2.88428C18.6188 2.92578 18.681 2.96728 18.764 3.00878L18.9091 3.09178C18.9091 3.09178 19.0128 3.15403 19.0542 3.17478C19.1579 3.23703 19.2616 3.29928 19.3652 3.38228L19.5518 3.50678C19.6762 3.58978 19.7799 3.67279 19.9043 3.77654L20.0494 3.88029C20.2153 4.00479 20.3812 4.12929 20.5263 4.27454L20.5885 4.33679C20.7129 4.46129 20.8373 4.56504 20.9825 4.68955L21.3349 5.0423C20.6922 5.4158 19.9665 5.74781 19.1786 6.03831V6.01756ZM18.2249 18.1772C16.7735 17.8037 15.26 17.5754 13.6842 17.5339V13.7159H18.8676C18.8262 15.2721 18.5981 16.7869 18.2456 18.1772H18.2249ZM18.7432 21.103C18.8884 20.771 19.0335 20.3974 19.1786 19.9824C19.9665 20.2522 20.6922 20.5842 21.3349 20.9785C21.2727 21.0407 21.2313 21.103 21.1483 21.186L21.0032 21.3312C20.8788 21.4557 20.7544 21.5595 20.63 21.684L20.547 21.7462C20.4019 21.8707 20.236 22.016 20.0702 22.1405C20.0494 22.1612 20.008 22.182 19.9872 22.2027L19.925 22.2442C19.8214 22.3272 19.697 22.4102 19.5726 22.4932L19.3652 22.6385C19.3652 22.6385 19.1786 22.763 19.075 22.8252L18.8469 22.9705C18.8469 22.9705 18.6396 23.095 18.5566 23.1365L18.3078 23.261C18.3078 23.261 18.1005 23.3647 17.9968 23.4062C17.9139 23.4477 17.8309 23.4892 17.748 23.5307C17.6443 23.5722 17.5407 23.6137 17.437 23.6552C17.3541 23.6967 17.2711 23.7175 17.1882 23.759H17.1053C17.7273 23.0535 18.2871 22.1405 18.7432 21.103V21.103ZM12.2743 1.53551V7.01357C10.8437 6.97207 9.45455 6.76457 8.14833 6.43256C8.27273 6.07981 8.39713 5.76856 8.52153 5.47805C9.49601 3.27853 10.823 1.88827 12.2536 1.51476L12.2743 1.53551ZM7.73365 7.82283C9.18501 8.19633 10.6986 8.42458 12.2743 8.46608V12.2841H7.09091C7.13238 10.7279 7.36045 9.21309 7.71292 7.82283H7.73365ZM1.47209 12.2841C1.61722 10.0638 2.38437 7.94733 3.69059 6.16281C4.47847 6.64006 5.37002 7.05507 6.36523 7.40782C5.95056 8.94334 5.72249 10.5826 5.68102 12.2841H1.47209ZM7.21531 4.89705C7.04944 5.2498 6.90431 5.6233 6.7799 6.01756C5.99203 5.74781 5.26635 5.4158 4.6236 5.02155C4.68581 4.9593 4.74801 4.89705 4.81021 4.81405L4.87241 4.7518C4.87241 4.7518 4.93461 4.68955 4.95534 4.6688C5.07974 4.54429 5.20415 4.41979 5.34928 4.31604L5.41148 4.25379C5.55662 4.12929 5.72249 3.98404 5.88836 3.85954L5.97129 3.79729L6.03349 3.75579C6.15789 3.67279 6.26156 3.56903 6.38596 3.48603L6.57257 3.36153C6.57257 3.36153 6.7799 3.21628 6.88357 3.15403L7.15311 3.00878C7.15311 3.00878 7.31898 2.90503 7.42265 2.86353C7.48485 2.82203 7.54705 2.80128 7.65072 2.73903C7.75439 2.67678 7.85805 2.63528 7.96172 2.57302L8.18979 2.46927C8.29346 2.42777 8.39713 2.36552 8.52153 2.32402C8.60447 2.28252 8.6874 2.26177 8.77033 2.22027L8.85327 2.17877C8.23126 2.92578 7.67145 3.81804 7.21531 4.8763V4.89705ZM12.2743 18.9864V24.4852C10.8437 24.1325 9.51675 22.7215 8.54226 20.5219C8.41786 20.2522 8.29346 19.9202 8.16906 19.5674C9.47528 19.2354 10.8644 19.0487 12.2951 18.9864H12.2743ZM6.7799 19.9824C6.92504 20.3767 7.07018 20.7502 7.21531 21.103C7.69218 22.1612 8.23126 23.0535 8.85327 23.8005L8.77033 23.759C8.77033 23.759 8.60447 23.6967 8.52153 23.6552C8.41786 23.6137 8.31419 23.5722 8.12759 23.4892L7.96172 23.4062C7.96172 23.4062 7.75439 23.3025 7.60925 23.2195L7.42265 23.1157C7.31898 23.0535 7.21531 22.9912 7.11164 22.929L6.90431 22.8045C6.80064 22.7422 6.69697 22.6592 6.57257 22.597L6.38596 22.4725C6.26156 22.3895 6.13716 22.3065 6.03349 22.2027L5.90909 22.099C5.74322 21.9745 5.57735 21.8292 5.43222 21.7047L5.37002 21.6425C5.24561 21.518 5.10048 21.4142 4.97608 21.2897L4.83094 21.1237C4.83094 21.1237 4.70654 20.9992 4.64434 20.9162C5.28708 20.5427 6.01276 20.2107 6.80064 19.9202L6.7799 19.9824ZM12.2743 17.5547C10.6986 17.5962 9.16427 17.8244 7.73365 18.1979C7.36045 16.8077 7.15311 15.2929 7.11164 13.7366H12.2951V17.5547H12.2743ZM6.3445 18.6129C5.37002 18.9657 4.47847 19.3807 3.66986 19.8579C2.36364 18.0734 1.59649 15.9569 1.45136 13.7366H5.66029C5.70175 15.4381 5.95056 17.0774 6.3445 18.6129Z" fill="#040404"/>
</svg>
