<svg width="16" height="16" viewBox="0 0 16 16" fill="none" xmlns="http://www.w3.org/2000/svg">
<path d="M15.9635 7.17377C15.8875 6.81029 15.7133 6.49725 15.4448 6.24455C14.7971 5.63355 13.7969 5.55388 13.2577 5.56142C12.7042 5.56849 11.9859 5.5916 11.3524 5.61187C11.1675 5.618 10.987 5.62365 10.8163 5.62884C11.1475 4.88254 11.4302 3.91654 11.3573 2.87841C11.3146 2.27213 11.1066 1.60079 10.8008 1.08314C10.3776 0.366067 9.78946 -0.0186348 9.14044 0.000694541C8.68035 0.0143665 7.86953 0.265648 7.61348 1.79974C7.57836 2.00953 7.55747 2.21603 7.53702 2.41592C7.51168 2.66673 7.48723 2.90387 7.43834 3.12781C7.28542 3.82555 6.63018 4.51245 6.05229 5.11826C5.94471 5.23094 5.84291 5.33748 5.74334 5.44497C5.4664 5.74387 5.17567 6.04419 4.89428 6.33413C4.68491 6.55052 4.46798 6.77399 4.25638 6.99745C4.12658 7.13464 4.01145 7.28221 3.91187 7.43779C3.73539 7.32369 3.52869 7.25769 3.30775 7.25769H1.16378C0.522324 7.25769 0 7.81117 0 8.49194V14.7655C0 15.4458 0.521879 15.9998 1.16378 15.9998H3.3082C3.60426 15.9998 3.87498 15.8814 4.08079 15.6877C4.3404 15.8814 4.6618 15.9965 5.00986 15.9965H11.9601C12.7287 15.9965 13.4573 15.7263 13.9592 15.2558C14.2597 14.9739 14.4695 14.6231 14.5664 14.2413C14.6286 13.9947 14.6477 13.7806 14.6242 13.5859C14.6206 13.5544 14.6144 13.5251 14.6073 13.4968C14.9216 13.1366 15.1332 12.7006 15.2132 12.2428C15.2816 11.8501 15.2541 11.463 15.1345 11.1056C15.3723 10.7827 15.531 10.414 15.599 10.0227C15.667 9.6319 15.6359 9.24485 15.507 8.86863C15.6288 8.71164 15.6604 8.66685 15.6848 8.623C15.9658 8.12091 16.06 7.63296 15.964 7.1733L15.9635 7.17377ZM3.3082 14.963H1.16378C1.06154 14.963 0.977968 14.8749 0.977968 14.766V8.49241C0.977968 8.38398 1.06154 8.29535 1.16378 8.29535H3.3082C3.41044 8.29535 3.49401 8.38351 3.49401 8.49241V8.52824C3.46823 8.68382 3.45445 8.84176 3.45445 9.00205V14.4426C3.45445 14.5595 3.46779 14.6731 3.49268 14.7829C3.48468 14.8838 3.40555 14.9635 3.30864 14.9635L3.3082 14.963ZM14.8531 8.07613C14.8175 8.12469 14.7113 8.26093 14.658 8.32929C14.63 8.36559 14.6046 8.39765 14.5868 8.42075C14.3828 8.68477 14.4473 8.91483 14.5059 9.03128C14.6411 9.3 14.6842 9.56307 14.6366 9.8351C14.5851 10.1316 14.4397 10.4103 14.2161 10.6408C14.0561 10.8058 14.0218 11.0651 14.133 11.2707C14.2588 11.5031 14.2992 11.7742 14.2503 12.0551C14.1943 12.3771 14.0192 12.6869 13.7578 12.9273C13.4671 13.1942 13.596 13.5737 13.6511 13.7354C13.6524 13.7396 13.6538 13.7434 13.6551 13.7472C13.6551 13.7868 13.6502 13.858 13.6213 13.9725C13.5746 14.1573 13.4671 14.3322 13.3106 14.4793C12.9901 14.7801 12.4851 14.9597 11.9597 14.9597H5.00986C4.76493 14.9597 4.556 14.8221 4.47198 14.6293V8.62961C4.54222 8.29912 4.70492 7.98938 4.94763 7.73291C5.15478 7.51369 5.36949 7.29258 5.57664 7.07854C5.86158 6.78436 6.15631 6.48027 6.44125 6.17289C6.53549 6.07106 6.63507 5.96687 6.73998 5.85702C7.41211 5.15221 8.17448 4.35404 8.39141 3.36353C8.45409 3.07831 8.48209 2.79827 8.50965 2.52813C8.52921 2.33719 8.54744 2.15663 8.57678 1.98125C8.67991 1.36412 8.87862 1.04684 9.16756 1.03835C9.17378 1.03835 9.17956 1.03835 9.18579 1.03835C9.89259 1.03835 10.3331 2.2627 10.382 2.95667C10.4567 4.02167 10.0455 5.0268 9.68677 5.68258C9.57431 5.88861 9.5752 6.14366 9.68944 6.34874C9.80724 6.55995 10.0268 6.68724 10.2616 6.68253C10.5736 6.67545 10.9661 6.66272 11.3818 6.64952C12.0117 6.62925 12.7251 6.60662 13.2697 6.59955C13.936 6.59059 14.5059 6.74853 14.7949 7.02055C14.9078 7.1271 14.9776 7.25062 15.0087 7.39913C15.0487 7.59148 14.998 7.81306 14.8531 8.07754V8.07613ZM15.3683 8.54239C15.3683 8.54239 15.3665 8.53909 15.3657 8.5372C15.3665 8.53909 15.3679 8.54145 15.3688 8.54333V8.54239H15.3683Z" fill="#040404"/>
</svg>
