<svg width="50" height="50" viewBox="0 0 50 50" fill="none" xmlns="http://www.w3.org/2000/svg">
<circle cx="25" cy="25" r="24.5" fill="white" stroke="#E1E1E1"/>
<path d="M20.5811 23.3409C21.3245 21.5273 22.652 20.4109 24.6502 20.1617C26.001 19.9932 27.2134 20.3639 28.238 21.2632C28.3157 21.3314 28.3487 21.317 28.4121 21.2544C29.1071 20.5693 29.8047 19.8869 30.5018 19.2038C30.5837 19.1235 30.5817 19.0465 30.4958 18.9725C29.3307 17.959 27.9831 17.3251 26.4396 17.0969C25.0089 16.8851 23.6137 17.0175 22.2616 17.524C20.7113 18.1049 19.4583 19.0677 18.4948 20.3914C18.2595 20.7148 18.0445 21.0511 17.8753 21.4137C18.7301 22.0644 19.5846 22.7152 20.4396 23.3655C20.4715 23.3897 20.5074 23.409 20.5416 23.4307C20.5548 23.4009 20.5686 23.3714 20.5811 23.3412V23.3409Z" fill="#E94335"/>
<path d="M26.0713 29.8097C25.35 29.9174 24.6317 29.9126 23.9269 29.7152C22.5042 29.3168 21.4734 28.4501 20.7992 27.1657C20.6972 26.9714 20.6284 26.7633 20.5342 26.5662C19.648 27.2401 18.7617 27.9138 17.8757 28.5877C17.8853 28.6111 17.8927 28.6356 17.9045 28.6579C18.1001 29.0314 18.3235 29.3881 18.5787 29.7253C19.6098 31.0884 20.943 32.049 22.5844 32.5912C23.6628 32.9476 24.7714 33.0594 25.9052 32.9715C27.1122 32.8778 28.2521 32.5706 29.3057 31.9787C29.7618 31.7225 30.1879 31.4254 30.5663 31.0657C29.7055 30.4099 28.8447 29.7539 27.9842 29.0982C27.3989 29.4704 26.7613 29.7069 26.0715 29.8097H26.0713Z" fill="#34A853"/>
<path d="M32.9848 24.664C32.9652 24.3074 32.9196 23.9538 32.8638 23.6009C32.8502 23.5151 32.8136 23.4985 32.7334 23.4985C30.2491 23.5002 27.7649 23.5006 25.2806 23.4978C25.1806 23.4978 25.1567 23.5256 25.1571 23.6208C25.1607 24.5759 25.1614 25.5309 25.1567 26.4858C25.1562 26.5954 25.1824 26.6252 25.2969 26.6247C26.6914 26.6206 28.0862 26.6219 29.4807 26.6221C29.6113 26.6221 29.6155 26.6261 29.5881 26.7508C29.4646 27.3153 29.2256 27.8275 28.8653 28.285C28.6155 28.6021 28.3139 28.8644 27.9842 29.0981C28.8449 29.7539 29.7055 30.4099 30.5663 31.0656C30.7509 30.9177 30.911 30.7455 31.0683 30.5709C31.9218 29.6248 32.4642 28.5233 32.758 27.3002C32.9663 26.4331 33.0337 25.553 32.9848 24.664Z" fill="#4385F3"/>
<path d="M20.5065 26.4505C20.2878 25.7615 20.2295 25.0597 20.3262 24.3443C20.3681 24.0325 20.4516 23.7309 20.5416 23.4305C20.5074 23.4089 20.4715 23.3896 20.4396 23.3653C19.5846 22.715 18.73 22.0643 17.8753 21.4136C17.867 21.4254 17.8574 21.4363 17.8509 21.4488C17.3592 22.417 17.0799 23.4415 17.0149 24.5202C16.9529 25.5496 17.0835 26.5559 17.4203 27.5342C17.5449 27.8963 17.684 28.2532 17.8757 28.5878C18.762 27.9138 19.6482 27.2401 20.5342 26.5662C20.5411 26.524 20.5186 26.4881 20.5067 26.4505H20.5065Z" fill="#FABB06"/>
</svg>
