<svg width="18" height="18" viewBox="0 0 18 18" fill="none" xmlns="http://www.w3.org/2000/svg">
<path d="M13.8083 3.11145C13.2168 3.11145 12.7283 3.60002 12.7283 4.19145C12.7283 4.78288 13.2168 5.27145 13.8083 5.27145C14.3997 5.27145 14.8883 4.78288 14.8883 4.19145C14.8883 3.60002 14.3997 3.11145 13.8083 3.11145Z" fill="#040404"/>
<path d="M9.00024 4.38428C6.45452 4.38428 4.38452 6.45428 4.38452 8.99999C4.38452 11.5457 6.45452 13.6157 9.00024 13.6157C11.5459 13.6157 13.616 11.5457 13.616 8.99999C13.616 6.45428 11.5459 4.38428 9.00024 4.38428ZM9.00024 12.0086C7.34166 12.0086 6.00452 10.6714 6.00452 9.01285C6.00452 7.35428 7.34166 6.01713 9.00024 6.01713C10.6588 6.01713 11.996 7.35428 11.996 9.01285C11.996 10.6714 10.6588 12.0086 9.00024 12.0086Z" fill="#040404"/>
<path d="M17.9486 5.28429C17.7943 2.03143 15.9814 0.205714 12.7157 0.0514286C11.7514 0.0128571 11.4429 0 9 0C6.55714 0 6.24857 0 5.28429 0.0514286C2.01857 0.205714 0.205714 2.01857 0.0514286 5.28429C0.0128571 6.24857 0 6.54429 0 9C0 11.4557 0 11.7514 0.0514286 12.7157C0.205714 15.9814 2.01857 17.8071 5.28429 17.9486C6.24857 17.9871 6.54429 18 9 18C11.4557 18 11.7514 18 12.7157 17.9486C15.9814 17.7943 17.8071 15.9814 17.9486 12.7157C17.9871 11.7514 18 11.4557 18 9C18 6.54429 18 6.24857 17.9486 5.28429ZM16.3286 12.6257C16.2129 15.0429 15.0814 16.2 12.6386 16.3157C11.6871 16.3543 11.4043 16.3671 9 16.3671C6.59571 16.3671 6.31286 16.3671 5.36143 16.3157C2.91857 16.2 1.78714 15.0429 1.67143 12.6257C1.63286 11.6743 1.62 11.3914 1.62 8.98714C1.62 6.58286 1.62 6.3 1.67143 5.34857C1.78714 2.93143 2.91857 1.77429 5.36143 1.65857C6.31286 1.62 6.59571 1.60714 9 1.60714C11.4043 1.60714 11.6871 1.60714 12.6386 1.65857C15.0814 1.77429 16.2129 2.93143 16.3286 5.34857C16.3671 6.3 16.38 6.58286 16.38 8.98714C16.38 11.3914 16.38 11.6743 16.3286 12.6257Z" fill="#040404"/>
</svg>
