<svg width="231" height="51" viewBox="0 0 231 51" fill="none" xmlns="http://www.w3.org/2000/svg">
<path fill-rule="evenodd" clip-rule="evenodd" d="M138.332 41.9958H91.6675C82.4589 41.9958 75 34.3881 75 25C75 15.6119 82.4631 8 91.6675 8H138.332C147.537 8 155 15.6119 155 25C155 34.3881 147.541 42 138.332 42" fill="#FFEB00"/>
<path fill-rule="evenodd" clip-rule="evenodd" d="M93.7178 16.1572C88.6968 16.1572 84.6211 19.4388 84.6211 23.4858C84.6211 26.0866 86.3086 28.3702 88.8419 29.6726L87.9836 32.9373C87.9505 33.0388 87.9795 33.1445 88.05 33.2164C88.0997 33.2672 88.1661 33.2926 88.2365 33.2926C88.2904 33.2926 88.3443 33.2714 88.3941 33.2333L92.08 30.696C92.6149 30.7722 93.1622 30.8187 93.7178 30.8187C98.7387 30.8187 102.814 27.5371 102.814 23.4901C102.814 19.443 98.7429 16.1615 93.7178 16.1615V16.1572Z" fill="black"/>
<path d="M110.48 29.5761V34.3082H107.176V16.8557H109.506L109.912 17.9637C110.613 17.249 111.679 16.4878 113.399 16.4878C116.637 16.4878 118.176 18.9574 118.151 22.9495C118.151 27.1276 115.775 29.8045 112.379 29.8045C111.724 29.8045 111.227 29.7579 110.48 29.5719V29.5761ZM110.48 19.6721V27.2206C110.663 27.2418 111.115 27.2883 111.546 27.2883C113.901 27.2883 114.805 25.6052 114.805 22.9495C114.805 20.6194 114.195 19.2112 112.317 19.2112C111.708 19.2112 111.028 19.3972 110.484 19.6721H110.48Z" fill="black"/>
<path d="M125.346 21.774H127.224V21.3596C127.224 19.9768 126.453 19.3298 125.118 19.3298C124.098 19.3298 122.787 19.63 121.722 20.1628L120.818 17.9004C121.995 17.0673 123.803 16.4922 125.412 16.4922C128.58 16.4922 130.3 18.2006 130.3 21.4569V29.4663H127.97L127.63 28.4049C126.295 29.3987 125.072 29.8131 123.965 29.8131C121.544 29.8131 120.184 28.3372 120.184 25.8422C120.184 23.1865 121.995 21.7783 125.341 21.7783L125.346 21.774ZM127.224 26.227V23.9181H125.706C124.01 23.9181 123.148 24.5397 123.148 25.7872C123.148 26.7345 123.625 27.1954 124.595 27.1954C125.499 27.1954 126.656 26.7345 127.22 26.227H127.224Z" fill="black"/>
<path d="M140.305 28.168C139.152 31.3058 137.772 33.5936 135.756 34.8623L133.721 32.9466C134.898 31.9063 135.736 30.8914 136.457 29.5297L132.066 17.321L135.346 16.4202L138.153 26.3242L140.935 16.3779L144.173 17.2998L140.305 28.1722V28.168Z" fill="black"/>
</svg>
