<svg width="24" height="25" viewBox="0 0 24 25" fill="none" xmlns="http://www.w3.org/2000/svg">
<g clip-path="url(#clip0_214_42)">
<path d="M15.7009 12.5509C17.6879 11.3512 19.0147 9.21828 19.0147 6.78865C19.0125 3.04461 15.8665 0 12 0C8.13351 0 4.98527 3.04461 4.98527 6.78865C4.98527 9.21828 6.3099 11.3512 8.29909 12.5509C3.48835 14.1447 0 18.757 0 24.188C0 24.6362 0.375909 25 0.839083 25C1.30226 25 1.67817 24.6362 1.67817 24.188C1.67817 18.3369 6.30766 13.5773 12 13.5773C17.6923 13.5773 22.3218 18.3369 22.3218 24.188C22.3218 24.6362 22.6977 25 23.1609 25C23.6241 25 24 24.6362 24 24.188C24 18.7592 20.5117 14.1468 15.7032 12.5509H15.7009ZM6.66343 6.78865C6.66343 3.9411 9.05762 1.62408 12 1.62408C14.9424 1.62408 17.3366 3.9411 17.3366 6.78865C17.3366 9.63621 14.9424 11.9532 12 11.9532C9.05762 11.9532 6.66343 9.63621 6.66343 6.78865Z" fill="#040404"/>
</g>
<defs>
<clipPath id="clip0_214_42">
<rect width="24" height="25" fill="white"/>
</clipPath>
</defs>
</svg>
