<svg width="231" height="51" viewBox="0 0 231 51" fill="none" xmlns="http://www.w3.org/2000/svg">
<path d="M115.402 17.4302H121.496C122.452 17.4302 123.288 17.5502 124.005 17.8002C124.712 18.0502 125.299 18.3902 125.767 18.8202C126.235 19.2602 126.574 19.7802 126.803 20.3802C127.032 20.9802 127.141 21.6302 127.141 22.3302V22.8302C127.141 23.5302 127.022 24.1802 126.773 24.7902C126.524 25.4002 126.176 25.9402 125.698 26.3902C125.23 26.8502 124.642 27.2102 123.935 27.4802C123.238 27.7502 122.422 27.8802 121.496 27.8802H117.742V34.5602H115.402V17.4302ZM117.742 19.4702V25.8402H121.108C123.567 25.8402 124.801 24.8202 124.801 22.7702V22.3402C124.801 21.3602 124.503 20.6302 123.915 20.1602C123.328 19.6902 122.472 19.4602 121.366 19.4602H117.742V19.4702Z" fill="#333333"/>
<path d="M133.156 34.7601C131.842 34.7601 130.806 34.4401 130.04 33.7901C129.273 33.1401 128.895 32.2401 128.895 31.1001V30.4601C128.895 29.3501 129.263 28.4501 130.01 27.7501C130.746 27.0501 131.951 26.7001 133.604 26.7001H136.89V25.9401C136.89 25.0701 136.681 24.4201 136.263 24.0001C135.844 23.5801 135.157 23.3701 134.211 23.3701C133.455 23.3701 132.798 23.4901 132.23 23.7301C131.672 23.9701 131.085 24.2901 130.488 24.6801L129.353 22.9701C129.98 22.5301 130.697 22.1401 131.483 21.8201C132.27 21.5001 133.186 21.3301 134.231 21.3301C134.958 21.3301 135.615 21.4201 136.223 21.6001C136.82 21.7801 137.338 22.0501 137.776 22.4101C138.214 22.7701 138.553 23.2001 138.792 23.7201C139.04 24.2401 139.16 24.8201 139.16 25.4701V34.5801H136.959V33.0101H136.94C136.81 33.2501 136.641 33.4701 136.432 33.6601C136.223 33.8601 135.984 34.0301 135.735 34.1701C135.386 34.3601 135.018 34.5101 134.61 34.6101C134.211 34.7101 133.724 34.7601 133.156 34.7601ZM136.9 28.6501H133.654C132.758 28.6501 132.111 28.8201 131.722 29.1701C131.334 29.5201 131.145 30.0001 131.145 30.6201V30.9501C131.145 31.5801 131.364 32.0401 131.812 32.3301C132.26 32.6201 132.778 32.7601 133.395 32.7601C133.963 32.7601 134.46 32.6901 134.879 32.5601C135.297 32.4301 135.675 32.2201 136.024 31.9501C136.342 31.7101 136.561 31.4401 136.701 31.1301C136.83 30.8201 136.9 30.4201 136.9 29.9301V28.6501Z" fill="#333333"/>
<path d="M147.174 31.9601L150.579 21.5701H152.999L146.278 39.9501L144.197 39.2101L145.879 34.7601L141.17 21.5601H143.659L147.094 31.9501H147.194L147.174 31.9601Z" fill="#333333"/>
<path d="M106.87 11H77V41H106.87V11Z" fill="#00C73C"/>
<path d="M94.316 32.8699L89.4969 25.7599V32.8699H84.4688V19.1299H89.5666L94.3856 26.2399V19.1299H99.4038V32.8699H94.316Z" fill="white"/>
</svg>
