<svg width="18" height="20" viewBox="0 0 18 20" fill="none" xmlns="http://www.w3.org/2000/svg">
<path d="M9.58313 20C12.7596 20 15.7222 18.4551 17.5118 15.8638C17.7329 15.5443 17.6473 15.1054 17.3229 14.8877C16.9949 14.67 16.5528 14.7542 16.3318 15.0738C14.8095 17.2788 12.2855 18.5955 9.58313 18.5955C5.08402 18.5955 1.42627 14.993 1.42627 10.5618C1.42627 6.13064 5.08402 2.52811 9.58313 2.52811C12.5029 2.52811 15.2159 4.08007 16.6669 6.57656C16.8345 6.86448 17.1838 6.99791 17.5047 6.89609C17.8256 6.79426 18.0288 6.48527 17.9967 6.15522L17.4263 0.632041C17.3835 0.245805 17.0412 -0.0386052 16.642 0.00352966C16.2498 0.0421533 15.9646 0.386254 16.0038 0.77249L16.3211 3.85184C14.5528 2.13134 12.1357 1.12361 9.58313 1.12361C4.29971 1.12361 0.000244141 5.35816 0.000244141 10.5618C0.000244141 15.7655 4.29971 20 9.58313 20Z" fill="#777777"/>
<path d="M5.14119 14H8.92119V13.145H7.62519V7.367H6.84219C6.46419 7.61 6.02319 7.763 5.40219 7.88V8.537H6.59019V13.145H5.14119V14ZM12.065 14.117C13.361 14.117 14.207 12.965 14.207 10.661C14.207 8.375 13.361 7.25 12.065 7.25C10.769 7.25 9.923 8.366 9.923 10.661C9.923 12.965 10.769 14.117 12.065 14.117ZM12.065 13.298C11.39 13.298 10.913 12.578 10.913 10.661C10.913 8.762 11.39 8.069 12.065 8.069C12.74 8.069 13.217 8.762 13.217 10.661C13.217 12.578 12.74 13.298 12.065 13.298Z" fill="#777777"/>
</svg>
