<svg width="20" height="20" viewBox="0 0 20 20" fill="none" xmlns="http://www.w3.org/2000/svg">
<path d="M2.31973 2.36456C2.51707 2.26554 2.75687 2.26779 2.94921 2.37356L15.6411 9.31364V2.56259C15.6411 2.25204 15.9209 2 16.2656 2H16.3755C16.7202 2 17 2.25204 17 2.56259V17.4374C17 17.748 16.7202 18 16.3755 18H16.2656C15.9209 18 15.6411 17.748 15.6411 17.4374V10.6864L2.94921 17.6264C2.84929 17.6805 2.73689 17.7075 2.62448 17.7075C2.51957 17.7075 2.41465 17.6827 2.31724 17.6354C2.1199 17.5364 2 17.3474 2 17.1449V2.85513C2 2.6526 2.1224 2.46357 2.31724 2.36456H2.31973ZM3.25146 16.1435L14.4871 10L3.24896 3.85429V16.1435H3.25146Z" fill="#777777"/>
</svg>
