<svg width="36" height="54" viewBox="0 0 36 54" fill="none" xmlns="http://www.w3.org/2000/svg">
<path d="M9 4.51925C9 2.02334 6.98528 0 4.5 0C2.01472 0 0 2.02334 0 4.51925V49.4808C0 51.9767 2.01472 54 4.5 54C6.98528 54 9 51.9767 9 49.4808V4.51925Z" fill="#040404"/>
<path d="M9 4.51925C9 2.02334 6.98528 0 4.5 0C2.01472 0 0 2.02334 0 4.51925V49.4808C0 51.9767 2.01472 54 4.5 54C6.98528 54 9 51.9767 9 49.4808V4.51925Z" fill="#040404"/>
<path d="M35.9727 4.51925C35.9727 2.02334 33.9579 0 31.4727 0C28.9874 0 26.9727 2.02334 26.9727 4.51925V49.4808C26.9727 51.9767 28.9874 54 31.4727 54C33.9579 54 35.9727 51.9767 35.9727 49.4808V4.51925Z" fill="#040404"/>
</svg>
