<svg width="34" height="34" viewBox="0 0 34 34" fill="none" xmlns="http://www.w3.org/2000/svg">
<circle cx="17" cy="17" r="17" fill="#6933FF"/>
<path d="M14.0023 11.1717C14.0023 10.5246 13.3302 10 12.5011 10C11.6721 10 11 10.5246 11 11.1717V22.8283C11 23.4754 11.6721 24 12.5011 24C13.3302 24 14.0023 23.4754 14.0023 22.8283V11.1717Z" fill="white"/>
<path d="M22.9994 11.1717C22.9994 10.5246 22.3273 10 21.4982 10C20.6692 10 19.9971 10.5246 19.9971 11.1717V22.8283C19.9971 23.4754 20.6692 24 21.4982 24C22.3273 24 22.9994 23.4754 22.9994 22.8283V11.1717Z" fill="white"/>
</svg>
