<svg width="231" height="51" viewBox="0 0 231 51" fill="none" xmlns="http://www.w3.org/2000/svg">
<path d="M78 19.9352C78 18.9343 78.8093 18.1396 79.8286 18.1396H84.7927C88.7614 18.1396 91.1588 20.4473 91.1588 23.7857V23.8322C91.1588 27.6128 88.1654 29.5713 84.4372 29.5713H81.6571V32.9529C81.6571 33.9571 80.8478 34.7485 79.8286 34.7485C78.8093 34.7485 78 33.9538 78 32.9529V19.9352ZM84.5557 26.3726C86.3843 26.3726 87.4543 25.2986 87.4543 23.8987V23.8522C87.4543 22.2428 86.3131 21.3783 84.4846 21.3783H81.6571V26.3693H84.5557V26.3726Z" fill="#FA2828"/>
<path d="M90.5766 32.2981L96.3738 19.4466C96.7768 18.5588 97.515 18.0234 98.5139 18.0234H98.7272C99.7262 18.0234 100.437 18.5588 100.84 19.4466L106.637 32.3014C106.756 32.5574 106.827 32.7902 106.827 33.0229C106.827 33.9806 106.065 34.7487 105.093 34.7487C104.237 34.7487 103.668 34.2599 103.336 33.5117L102.218 30.9448H94.9008L93.7359 33.6281C93.4278 34.3264 92.8081 34.7487 92.0496 34.7487C91.0981 34.7487 90.3633 34.0005 90.3633 33.0695C90.3633 32.8135 90.4581 32.5574 90.5766 32.3014V32.2981ZM100.864 27.7726L98.5613 22.3826L96.2553 27.7726H100.864Z" fill="#FA2828"/>
<path d="M110.694 28.3114L105.327 21.1492C105.067 20.8001 104.877 20.3778 104.877 19.8657C104.877 18.9081 105.686 18.14 106.706 18.14C107.539 18.14 108.06 18.5822 108.51 19.2373L112.55 24.9531L116.658 19.1907C117.108 18.539 117.657 18.1167 118.415 18.1167C119.532 18.1167 120.196 18.8848 120.196 19.8657C120.196 20.3545 119.959 20.8001 119.722 21.1259L114.355 28.2416V32.9533C114.355 33.9575 113.546 34.7488 112.526 34.7488C111.507 34.7488 110.698 33.9541 110.698 32.9533V28.3114H110.694Z" fill="#FA2828"/>
<path d="M120.309 26.4923V26.4457C120.309 21.8039 123.871 18 128.981 18C131.476 18 133.163 18.6517 134.541 19.6559C134.92 19.9352 135.252 20.4473 135.252 21.079C135.252 22.0599 134.446 22.828 133.447 22.828C132.949 22.828 132.617 22.6418 132.353 22.4789C131.331 21.7308 130.264 21.3118 128.957 21.3118C126.153 21.3118 124.135 23.5995 124.135 26.3959V26.4424C124.135 29.2421 126.106 31.573 128.957 31.573C130.501 31.573 131.524 31.1075 132.567 30.2895C132.851 30.0568 133.23 29.8939 133.66 29.8939C134.588 29.8939 135.37 30.642 135.37 31.5498C135.37 32.1084 135.086 32.5539 134.754 32.8332C133.257 34.1167 131.5 34.8848 128.838 34.8848C123.945 34.8848 120.312 31.1774 120.312 26.489L120.309 26.4923Z" fill="#FA2828"/>
<path d="M136.324 26.4923V26.4457C136.324 21.8039 140.052 18 145.186 18C150.319 18 154 21.754 154 26.3959V26.4424C154 31.0842 150.272 34.8882 145.139 34.8882C140.005 34.8882 136.324 31.1308 136.324 26.4923ZM150.174 26.4923V26.4457C150.174 23.646 148.085 21.3151 145.139 21.3151C142.193 21.3151 140.151 23.6028 140.151 26.3992V26.4457C140.151 29.2455 142.24 31.5764 145.186 31.5764C148.132 31.5764 150.174 29.2887 150.174 26.4923Z" fill="#FA2828"/>
</svg>
