<svg width="231" height="51" viewBox="0 0 231 51" fill="none" xmlns="http://www.w3.org/2000/svg">
<path d="M125.848 0H103.152C100.864 0 99 1.87311 99 4.17237V46.8276C99 49.1269 100.864 51 103.152 51H125.848C128.136 51 130 49.1269 130 46.8276V4.17237C130 1.87311 128.136 0 125.848 0ZM100.578 4.17237C100.578 2.74524 101.732 1.5857 103.152 1.5857H125.848C127.268 1.5857 128.422 2.74524 128.422 4.17237V6.59056H100.578V4.17237ZM127.889 8.17625H128.422V38.4333C128.422 38.4333 128.392 38.4333 128.382 38.4333H100.618C100.618 38.4333 100.588 38.4333 100.578 38.4333V8.17625H127.889ZM125.848 49.4143H103.152C101.732 49.4143 100.578 48.2548 100.578 46.8276V40.0091C100.578 40.0091 100.608 40.0091 100.618 40.0091H128.382C128.382 40.0091 128.412 40.0091 128.422 40.0091V46.8276C128.422 48.2548 127.268 49.4143 125.848 49.4143Z" fill="#040404"/>
<path d="M114.495 41.6147C113.064 41.6147 111.891 42.7842 111.891 44.2311C111.891 45.6781 113.054 46.8475 114.495 46.8475C115.935 46.8475 117.098 45.6781 117.098 44.2311C117.098 42.7842 115.935 41.6147 114.495 41.6147ZM114.495 45.2519C113.932 45.2519 113.469 44.796 113.469 44.2212C113.469 43.6464 113.922 43.1905 114.495 43.1905C115.067 43.1905 115.52 43.6464 115.52 44.2212C115.52 44.796 115.057 45.2519 114.495 45.2519Z" fill="#040404"/>
<path d="M105.617 23.8546H107.896L110.046 30.5641C110.154 30.8912 110.45 31.1092 110.795 31.1092C111.141 31.1092 111.436 30.8912 111.545 30.5641L113.735 23.8546H116.082L117.917 30.5245C118.005 30.8614 118.321 31.0993 118.666 31.1092C119.011 31.1092 119.327 30.8812 119.426 30.5443L121.408 23.8546H123.391C123.825 23.8546 124.18 23.4978 124.18 23.0618C124.18 22.6257 123.825 22.2689 123.391 22.2689H121.882L123.253 17.6605C123.381 17.2442 123.144 16.7983 122.72 16.6694C122.296 16.5406 121.862 16.7884 121.734 17.2046L120.234 22.2689H117.275L115.826 16.9965C115.737 16.6595 115.431 16.4217 115.086 16.4118C114.711 16.4018 114.425 16.6298 114.317 16.9568L112.59 22.2689H109.05L107.274 16.7388C107.136 16.3226 106.692 16.0946 106.278 16.2235C105.864 16.3622 105.637 16.8082 105.765 17.2244L107.383 22.2689H105.617C105.183 22.2689 104.828 22.6257 104.828 23.0618C104.828 23.4978 105.183 23.8546 105.617 23.8546ZM119.761 23.8546L118.696 27.4423L117.709 23.8546H119.761ZM114.997 19.9498L115.638 22.2689H114.247L115.007 19.9498H114.997ZM112.068 23.8546L110.795 27.7495L109.543 23.8546H112.058H112.068Z" fill="#040404"/>
</svg>
