<svg width="18" height="20" viewBox="0 0 18 20" fill="none" xmlns="http://www.w3.org/2000/svg">
<path d="M8.41687 20.0006C5.2404 20.0006 2.27783 18.4557 0.488168 15.8644C0.267134 15.5449 0.352696 15.106 0.677117 14.8883C1.0051 14.6706 1.44717 14.7548 1.6682 15.0744C3.19049 17.2794 5.71455 18.5961 8.41687 18.5961C12.916 18.5961 16.5737 14.9936 16.5737 10.5624C16.5737 6.13125 12.916 2.52872 8.41687 2.52872C5.49708 2.52872 2.78407 4.08069 1.33309 6.57717C1.16553 6.8651 0.816154 6.99852 0.495298 6.8967C0.174443 6.79487 -0.0287658 6.48588 0.00331975 6.15583L0.57373 0.632651C0.61651 0.246415 0.958756 -0.0379948 1.35804 0.00414001C1.7502 0.0427636 2.03541 0.386865 1.99619 0.773101L1.6789 3.85245C3.44717 2.13195 5.86428 1.12422 8.41687 1.12422C13.7003 1.12422 17.9998 5.35878 17.9998 10.5624C17.9998 15.7661 13.7003 20.0006 8.41687 20.0006Z" fill="#777777"/>
<path d="M4.14119 14.0006H7.92119V13.1456H6.62519V7.36761H5.84219C5.46419 7.61061 5.02319 7.76361 4.40219 7.88061V8.53761H5.59019V13.1456H4.14119V14.0006ZM11.065 14.1176C12.361 14.1176 13.207 12.9656 13.207 10.6616C13.207 8.37561 12.361 7.25061 11.065 7.25061C9.769 7.25061 8.923 8.36661 8.923 10.6616C8.923 12.9656 9.769 14.1176 11.065 14.1176ZM11.065 13.2986C10.39 13.2986 9.913 12.5786 9.913 10.6616C9.913 8.76261 10.39 8.06961 11.065 8.06961C11.74 8.06961 12.217 8.76261 12.217 10.6616C12.217 12.5786 11.74 13.2986 11.065 13.2986Z" fill="#777777"/>
</svg>
