<svg width="20" height="20" viewBox="0 0 20 20" fill="none" xmlns="http://www.w3.org/2000/svg">
<path d="M16.6803 2.36456C16.4829 2.26554 16.2431 2.26779 16.0508 2.37356L3.35887 9.31364V2.56259C3.35887 2.25204 3.0791 2 2.73439 2H2.62448C2.27977 2 2 2.25204 2 2.56259V17.4374C2 17.748 2.27977 18 2.62448 18H2.73439C3.0791 18 3.35887 17.748 3.35887 17.4374V10.6864L16.0508 17.6264C16.1507 17.6805 16.2631 17.7075 16.3755 17.7075C16.4804 17.7075 16.5853 17.6827 16.6828 17.6354C16.8801 17.5364 17 17.3474 17 17.1449V2.85513C17 2.6526 16.8776 2.46357 16.6828 2.36456H16.6803ZM15.7485 16.1435L4.51291 10L15.751 3.85429V16.1435H15.7485Z" fill="#777777"/>
</svg>
