<svg width="143" height="23" viewBox="0 0 143 23" fill="none" xmlns="http://www.w3.org/2000/svg">
<path d="M10.9882 22.687C4.92878 22.687 0 17.5988 0 11.3435C0 5.08817 4.92878 0 10.9882 0C17.0476 0 21.9764 5.08817 21.9764 11.3435C21.9764 17.5988 17.0476 22.687 10.9882 22.687ZM10.9882 5.67284C7.95848 5.67284 5.49514 8.21801 5.49514 11.3435C5.49514 14.469 7.96059 17.0142 10.9882 17.0142C14.0158 17.0142 16.4812 14.469 16.4812 11.3435C16.4812 8.21801 14.0158 5.67284 10.9882 5.67284Z" fill="url(#paint0_linear_214_48)"/>
<path style="mix-blend-mode:overlay" d="M10.9882 22.687C4.92878 22.687 0 17.5988 0 11.3435C0 5.08817 4.92878 0 10.9882 0C17.0476 0 21.9764 5.08817 21.9764 11.3435C21.9764 17.5988 17.0476 22.687 10.9882 22.687ZM10.9882 5.67284C7.95848 5.67284 5.49514 8.21801 5.49514 11.3435C5.49514 14.469 7.96059 17.0142 10.9882 17.0142C14.0158 17.0142 16.4812 14.469 16.4812 11.3435C16.4812 8.21801 14.0158 5.67284 10.9882 5.67284Z" fill="url(#paint1_linear_214_48)"/>
<path d="M20.1088 22.8109C19.4056 22.8109 18.7024 22.5349 18.1655 21.9806L17.0349 20.8134C15.2559 22.0241 13.1589 22.687 10.9882 22.687C4.92878 22.687 0 17.5988 0 11.3435C0 9.77641 1.22956 8.50708 2.74757 8.50708C4.26558 8.50708 5.49514 9.77641 5.49514 11.3435C5.49514 14.4712 7.96059 17.0142 10.9882 17.0142C12.5693 17.0142 14.0747 16.31 15.119 15.0819C15.6201 14.4929 16.3359 14.1451 17.0939 14.1191C17.8518 14.093 18.5887 14.3929 19.1256 14.9472L22.0521 17.9683C23.1259 19.0768 23.1259 20.8721 22.0521 21.9784C21.5153 22.5327 20.8121 22.8087 20.1088 22.8087V22.8109Z" fill="url(#paint2_linear_214_48)"/>
<path d="M43.9865 4.47954C43.3254 3.3015 42.3864 2.37124 41.201 1.71484C40.0367 1.07148 38.7103 0.743286 37.2597 0.743286H32.1414C31.4761 0.743286 30.8782 0.978024 30.4065 1.42359C29.9097 1.89524 29.6465 2.52773 29.6465 3.24933V20.2418C29.6465 20.9395 29.9055 21.5633 30.3939 22.0414C30.8655 22.5044 31.4698 22.7478 32.1414 22.7478C32.813 22.7478 33.4531 22.4979 33.9163 22.0262C34.3858 21.548 34.6363 20.9308 34.6363 20.2418V15.9469H37.2597C38.7061 15.9469 40.0283 15.6318 41.1863 15.008C42.3737 14.3711 43.3128 13.4691 43.9781 12.3259C44.6413 11.187 44.976 9.88069 44.976 8.444C44.976 7.00732 44.6434 5.64671 43.9865 4.47736V4.47954ZM40.0894 8.44618C40.0894 9.25689 39.8472 9.86765 39.3293 10.3697C38.7966 10.8848 38.1208 11.1348 37.2597 11.1348H34.6363V5.55542H37.2597C38.1082 5.55542 38.7777 5.81841 39.3061 6.36179C39.8325 6.90082 40.0894 7.5833 40.0894 8.44618Z" fill="#6933FF"/>
<path d="M53.6836 1.43663C53.2204 0.982371 52.6119 0.743286 51.9235 0.743286C51.235 0.743286 50.6602 0.978024 50.1907 1.42359C49.6938 1.89742 49.4307 2.52773 49.4307 3.24933V20.2418C49.4307 20.9395 49.6896 21.5633 50.1781 22.0414C50.6497 22.5044 51.254 22.7478 51.9256 22.7478C52.5972 22.7478 53.2373 22.4979 53.7005 22.0262C54.17 21.548 54.4205 20.9308 54.4205 20.2418V3.24933C54.4205 2.53425 54.1679 1.90828 53.6878 1.43663H53.6836Z" fill="#6933FF"/>
<path d="M75.2035 16.7795C73.8918 17.7445 72.5717 18.214 71.1695 18.214C70.041 18.214 69.0346 17.9314 68.0914 17.3533C67.1377 16.7686 66.4029 15.997 65.8428 14.9972C65.2849 14.0039 65.0133 12.9367 65.0133 11.7348C65.0133 10.5328 65.2849 9.48301 65.8428 8.48103C66.4029 7.4747 67.1398 6.70093 68.0914 6.11626C69.0346 5.53811 70.041 5.25555 71.1695 5.25555C72.0812 5.25555 72.8139 5.35988 73.3423 5.56636C73.8876 5.77937 74.4687 6.14234 75.0898 6.65963C76.0541 7.42905 77.4142 7.41167 78.309 6.62486C78.8206 6.17494 79.0901 5.57288 79.0901 4.88171C79.0901 4.49917 79.0227 4.14707 78.8859 3.82756C78.7322 3.47111 78.4627 3.14943 78.1216 2.89948C77.0521 2.05398 75.972 1.43453 74.9109 1.06069C73.8455 0.684676 72.5865 0.493408 71.1674 0.493408C69.1441 0.493408 67.2661 0.999834 65.5839 1.9953C63.9037 2.99294 62.5584 4.36224 61.5899 6.06844C60.6172 7.77899 60.1245 9.68515 60.1245 11.7348C60.1245 13.7844 60.6172 15.7166 61.5878 17.4359C62.5584 19.1529 63.9037 20.5244 65.5881 21.5133C67.2682 22.5001 69.1462 23 71.1674 23C73.755 23 76.1025 22.1828 78.1448 20.5679L78.2374 20.4853C78.7427 19.9897 79.0101 19.3681 79.0101 18.6856C79.0101 18.0031 78.7848 17.4076 78.3595 16.9555C77.5805 16.1318 76.3552 15.9774 75.2014 16.7773L75.2035 16.7795Z" fill="#6933FF"/>
<path d="M93.8468 10.7002L99.6114 5.02301C100.167 4.47963 100.46 3.78629 100.46 3.02121C100.46 2.40829 100.245 1.85622 99.8367 1.41934C99.5462 1.10853 99.0198 0.741211 98.1692 0.741211C97.7987 0.741211 97.4534 0.81511 97.1418 0.960735C96.8576 1.09332 96.5712 1.30197 96.268 1.59974L89.7623 7.98115V3.24943C89.7623 2.55174 89.5033 1.92794 89.0149 1.44977C88.5433 0.986817 87.939 0.743384 87.2674 0.743384C86.5957 0.743384 86.0231 0.98247 85.5451 1.43673C85.0398 1.91708 84.7725 2.54304 84.7725 3.24943V20.2419C84.7725 20.9483 85.0398 21.5742 85.5451 22.0546C86.0231 22.5088 86.6189 22.7479 87.2674 22.7479C87.9158 22.7479 88.5433 22.5045 89.0149 22.0415C89.5033 21.5634 89.7623 20.9396 89.7623 20.2419V14.7081L90.3097 14.1713L95.9712 21.6959C96.4428 22.3762 97.1692 22.7501 98.0176 22.7501C98.6956 22.7501 99.2893 22.4741 99.7357 21.9546C100.144 21.4764 100.359 20.8939 100.359 20.268C100.359 19.7094 100.19 19.1834 99.8599 18.7291L93.8468 10.7002Z" fill="#6933FF"/>
<path d="M121.464 18.5617C121.013 18.153 120.42 17.9357 119.748 17.9357H110.674V14.0625H116.855C117.512 14.0625 118.101 13.8408 118.56 13.4213C119.062 12.9649 119.325 12.3541 119.325 11.6564C119.325 10.9587 119.062 10.348 118.56 9.89155C118.101 9.47207 117.512 9.25037 116.855 9.25037H110.674V5.55542H119.748C120.599 5.55542 121.15 5.21418 121.464 4.92945C121.957 4.48171 122.215 3.8753 122.215 3.17543C122.215 2.47557 121.961 1.85395 121.479 1.39751C121.163 1.09974 120.605 0.743286 119.746 0.743286H108.177C107.511 0.743286 106.913 0.978024 106.442 1.42359C105.945 1.89524 105.682 2.52773 105.682 3.24933V20.2418C105.682 20.9395 105.941 21.5633 106.429 22.0414C106.901 22.5044 107.505 22.7478 108.177 22.7478H119.746C120.426 22.7478 121.026 22.5218 121.479 22.0936C121.961 21.6372 122.215 21.0242 122.215 20.3157C122.215 19.6071 121.954 19.0094 121.464 18.5617Z" fill="#6933FF"/>
<path d="M142.552 18.8812L139.326 13.7952C140.04 13.3018 140.642 12.6889 141.128 11.9629C141.876 10.8436 142.255 9.54814 142.255 8.11798C142.255 6.68781 141.918 5.40327 141.253 4.27957C140.585 3.1537 139.644 2.26908 138.455 1.64964C137.297 1.04758 135.981 0.743286 134.541 0.743286H129.934C129.269 0.743286 128.671 0.978024 128.199 1.42359C127.702 1.89524 127.439 2.52773 127.439 3.24933V20.2418C127.439 20.9395 127.698 21.5633 128.186 22.0414C128.658 22.5044 129.262 22.7478 129.934 22.7478C130.606 22.7478 131.246 22.4979 131.709 22.0262C132.178 21.548 132.429 20.9308 132.429 20.2418V15.1927H134.374L138.44 21.5893C138.926 22.337 139.678 22.7478 140.556 22.7478C141.434 22.7478 141.981 22.3827 142.291 22.0784C142.754 21.6241 143 21.0329 143 20.3657C143 19.8462 142.851 19.3463 142.554 18.879L142.552 18.8812ZM137.368 8.11798C137.368 8.77872 137.143 9.27863 136.661 9.69159C136.12 10.1545 135.425 10.3806 134.538 10.3806H132.427V5.55542H134.538C135.408 5.55542 136.09 5.79885 136.623 6.29876C137.13 6.77475 137.368 7.35291 137.368 8.12015V8.11798Z" fill="#6933FF"/>
<defs>
<linearGradient id="paint0_linear_214_48" x1="5.49514" y1="1.52145" x2="17.014" y2="20.848" gradientUnits="userSpaceOnUse">
<stop stop-color="#5FE6FA"/>
<stop offset="0.65" stop-color="#6933FF"/>
</linearGradient>
<linearGradient id="paint1_linear_214_48" x1="5.49514" y1="1.52145" x2="17.014" y2="20.848" gradientUnits="userSpaceOnUse">
<stop stop-color="#5FE6FA" stop-opacity="0"/>
<stop offset="0.45" stop-color="#6933FF" stop-opacity="0"/>
<stop offset="0.75" stop-color="#6933FF"/>
</linearGradient>
<linearGradient id="paint2_linear_214_48" x1="9.91231" y1="7.15951" x2="13.0049" y2="24.1487" gradientUnits="userSpaceOnUse">
<stop stop-color="#65F4FA" stop-opacity="0"/>
<stop offset="0.22" stop-color="#66C1FA" stop-opacity="0"/>
<stop offset="0.64" stop-color="#6933FF"/>
</linearGradient>
</defs>
</svg>
