<svg width="25" height="25" viewBox="0 0 25 25" fill="none" xmlns="http://www.w3.org/2000/svg">
<path d="M23.9315 22.2274L23.4219 20.594C23.0157 19.2828 22.0034 18.3452 20.7845 18.0522V9.88503C20.7914 4.98471 17.0728 1 12.5004 1C7.92793 1 4.20937 4.98471 4.20937 9.88503V18.0522C2.99051 18.3452 1.97823 19.2828 1.57195 20.594L1.06236 22.2274C0.931526 22.6376 1.00039 23.0917 1.24141 23.4433C1.48242 23.7949 1.85428 24 2.26057 24H22.7333C23.1396 24 23.5115 23.7949 23.7525 23.4433C23.9935 23.0917 24.0555 22.6376 23.9315 22.2274ZM12.5004 2.02548C16.5426 2.02548 19.8273 5.54873 19.8273 9.88503V17.9497H5.17344V9.88503C5.17344 5.54873 8.45817 2.02548 12.5004 2.02548ZM22.9743 22.8427C22.9399 22.8939 22.8642 22.9745 22.7333 22.9745H2.26057C2.12973 22.9745 2.05398 22.8939 2.01955 22.8427C1.992 22.7987 1.93003 22.6889 1.97823 22.5497L2.48781 20.9162C2.8459 19.7662 3.8444 18.9898 4.96686 18.9825C10.0902 19.0191 13.5195 19.0338 15.8195 19.0338C18.1195 19.0338 19.3797 19.0118 19.9719 18.9752H20.0064C21.1426 18.9752 22.148 19.7516 22.513 20.9162L23.0225 22.5497C23.0639 22.6962 23.0088 22.8061 22.9812 22.8427H22.9743Z" fill="#040404"/>
<path d="M13.3541 5.55599C15.2134 5.55599 16.7284 7.18211 16.7284 9.17447C16.7284 9.46014 16.9418 9.68721 17.2104 9.68721C17.479 9.68721 17.6924 9.46014 17.6924 9.17447C17.6924 6.61077 15.7505 4.53052 13.3541 4.53052C13.0855 4.53052 12.8721 4.75759 12.8721 5.04326C12.8721 5.32893 13.0855 5.55599 13.3541 5.55599Z" fill="#040404"/>
</svg>
