<svg width="25" height="25" viewBox="0 0 25 25" fill="none" xmlns="http://www.w3.org/2000/svg">
<path d="M12.5 1C6.15778 1 1 6.15778 1 12.5C1 15.1719 1.93653 17.7611 3.6512 19.8269L1.09641 23.2287C0.986228 23.3734 0.972455 23.5731 1.0482 23.7314C1.12395 23.8898 1.29611 24 1.48204 24H12.5C18.8422 24 24 18.8422 24 12.5C24 6.15778 18.8422 1 12.5 1ZM12.5 23.0359H2.44611L4.6497 20.0955C4.78743 19.9096 4.77365 19.6548 4.62216 19.4895C2.90749 17.5545 1.95719 15.0754 1.95719 12.5069C1.96407 6.68802 6.68802 1.96407 12.5 1.96407C18.312 1.96407 23.0359 6.68802 23.0359 12.5C23.0359 18.312 18.312 23.0359 12.5 23.0359Z" fill="#222222"/>
<path d="M12.4999 11.1709C11.7631 11.1709 11.1709 11.7631 11.1709 12.4999C11.1709 13.2368 11.7631 13.829 12.4999 13.829C13.2368 13.829 13.829 13.2368 13.829 12.4999C13.829 11.7631 13.2368 11.1709 12.4999 11.1709Z" fill="#222222"/>
<path d="M7.50775 11.1709C6.77093 11.1709 6.17871 11.7631 6.17871 12.4999C6.17871 13.2368 6.77093 13.829 7.50775 13.829C8.24458 13.829 8.83679 13.2368 8.83679 12.4999C8.83679 11.7631 8.24458 11.1709 7.50775 11.1709Z" fill="#222222"/>
<path d="M17.4921 11.1709C16.7553 11.1709 16.1631 11.7631 16.1631 12.4999C16.1631 13.2368 16.7553 13.829 17.4921 13.829C18.229 13.829 18.8212 13.2368 18.8212 12.4999C18.8212 11.7631 18.229 11.1709 17.4921 11.1709Z" fill="#222222"/>
</svg>
