<svg width="20" height="20" viewBox="0 0 20 20" fill="none" xmlns="http://www.w3.org/2000/svg">
<path d="M17.7066 16.426L13.6449 12.7231C14.4086 11.6094 14.8609 10.2446 14.8609 8.76919C14.8609 5.03642 11.9765 2 8.43047 2C4.88449 2 2 5.03642 2 8.76919C2 12.502 4.88449 15.5384 8.43047 15.5384C9.96073 15.5384 11.368 14.9715 12.4733 14.0281L16.5909 17.7818C16.7518 17.9283 16.9505 18.001 17.1483 18.001C17.3868 18.001 17.6243 17.8964 17.7927 17.6912C18.1003 17.3166 18.0625 16.7508 17.7066 16.426ZM3.70344 8.76919C3.70344 6.02565 5.82421 3.79316 8.43047 3.79316C11.0367 3.79316 13.1575 6.02565 13.1575 8.76919C13.1575 11.5127 11.0367 13.7452 8.43047 13.7452C5.82421 13.7452 3.70344 11.5127 3.70344 8.76919Z" fill="#6933FF"/>
</svg>
