<svg width="25" height="25" viewBox="0 0 25 25" fill="none" xmlns="http://www.w3.org/2000/svg">
<path d="M20.7434 7.70229C22.5367 7.70229 23.9995 6.2013 23.9995 4.35114C23.9995 2.50099 22.5411 1 20.7434 1C18.9457 1 17.4873 2.50099 17.4873 4.35114C17.4873 4.70938 17.5445 5.04949 17.6459 5.37599L6.96983 10.6272C6.38822 9.72023 5.38803 9.11711 4.25125 9.11711C2.45795 9.11711 0.995117 10.6181 0.995117 12.4683C0.995117 14.3184 2.45355 15.8194 4.25125 15.8194C5.18975 15.8194 6.03573 15.4067 6.63056 14.7492L14.5396 19.4018C14.3853 19.7873 14.3016 20.209 14.3016 20.6534C14.3016 22.499 15.7601 24.0045 17.5578 24.0045C19.3555 24.0045 20.8139 22.5035 20.8139 20.6534C20.8139 18.8032 19.3555 17.3022 17.5578 17.3022C16.5091 17.3022 15.575 17.8192 14.9802 18.6128L7.14608 14.001C7.3796 13.5384 7.51178 13.0215 7.51178 12.4683C7.51178 12.11 7.4545 11.7699 7.35316 11.4434L18.0248 6.1877C18.6064 7.09464 19.6066 7.69775 20.7434 7.69775V7.70229Z" fill="#040404"/>
</svg>
