<svg width="48" height="30" viewBox="0 0 48 30" fill="none" xmlns="http://www.w3.org/2000/svg">
<rect width="48" height="30" rx="15" fill="#040404"/>
<path d="M18.344 20.504C19.142 20.504 19.394 19.888 19.394 19.342C19.394 18.81 19.156 18.166 18.344 18.166H14.046C13.794 18.166 13.682 18.082 13.682 17.76V15.534H17.434C18.232 15.534 18.554 14.96 18.554 14.386C18.554 13.798 18.246 13.224 17.434 13.224H13.682V11.18C13.682 10.858 13.794 10.774 14.046 10.774H17.77C18.568 10.774 18.82 10.13 18.82 9.584C18.82 9.052 18.582 8.408 17.77 8.408H13.038C11.218 8.408 10.882 8.828 10.882 10.578V18.32C10.882 20.07 11.218 20.504 13.038 20.504H18.344ZM23.174 21.064V9.304C23.174 8.394 22.516 7.918 21.774 7.918C21.032 7.918 20.374 8.394 20.374 9.304V21.064H23.174ZM25.624 14.022C24.994 14.008 24.602 14.4 24.56 14.974C24.518 15.618 24.938 16.01 25.554 16.094C25.708 16.122 25.89 16.122 26.03 16.122C28.256 16.108 30.104 15.156 30.79 13.154H31.938V15.716H34.346V9.108C34.346 8.338 33.772 7.918 33.142 7.918C32.498 7.918 31.938 8.324 31.938 9.108V10.956H31.084V10.06C31.084 8.912 30.678 8.352 29.292 8.352H25.75C25.036 8.352 24.756 8.912 24.756 9.388C24.756 9.878 25.05 10.466 25.75 10.466H28.522C28.718 10.466 28.802 10.536 28.802 10.732V11.18H25.624C24.91 11.18 24.63 11.712 24.63 12.188C24.63 12.664 24.924 13.182 25.624 13.182L27.486 13.168C27.766 13.168 28.046 13.112 28.312 13.014C27.794 13.714 26.898 14.05 25.624 14.022ZM32.834 17.242C32.834 16.402 32.302 16.052 31.574 16.01C30.846 15.968 30.37 16.262 29.978 17.144C29.418 18.418 27.584 18.922 26.324 18.866C25.68 18.838 25.162 19.216 25.12 19.902C25.078 20.616 25.596 21.12 26.268 21.19C27.976 21.372 30.44 20.644 31.812 19.342C33.324 19.16 34.626 19.86 34.962 21.064H37.832C37.44 18.236 35.004 17.2 32.834 17.284V17.242ZM34.948 16.206H37.398V9.108C37.398 8.338 36.796 7.918 36.166 7.918C35.522 7.918 34.948 8.324 34.948 9.108V16.206Z" fill="white"/>
</svg>
