<svg width="66" height="30" viewBox="0 0 66 30" fill="none" xmlns="http://www.w3.org/2000/svg">
<rect width="66" height="30" rx="15" fill="#040404"/>
<path d="M15.2954 21.084V12.292H17.4374C18.2494 12.292 18.5714 11.62 18.5714 11.046C18.5714 10.472 18.2634 9.842 17.4374 9.842H10.2414C9.41542 9.842 9.10742 10.472 9.10742 11.046C9.10742 11.62 9.42942 12.292 10.2414 12.292H12.3834V21.084H15.2954ZM19.3384 21.084H22.2224V13.832C22.2224 12.866 21.5644 12.432 20.7804 12.432C19.9964 12.432 19.3384 12.866 19.3384 13.832V21.084ZM19.3244 10.542C19.3244 11.466 19.9964 11.83 20.7804 11.83C21.5644 11.83 22.2364 11.466 22.2364 10.542C22.2364 9.618 21.5644 9.254 20.7804 9.254C19.9964 9.254 19.3244 9.618 19.3244 10.542ZM26.47 16.198C26.47 15.008 27.226 14.728 27.842 14.728C28.276 14.728 28.486 14.784 28.766 14.91C28.976 15.008 29.186 15.12 29.438 15.148C29.886 15.204 30.306 15.106 30.572 14.644C30.936 14.014 30.586 13.286 29.928 12.88C29.48 12.6 28.738 12.334 27.744 12.334C25.812 12.334 23.586 13.272 23.586 16.212V17.444C23.586 20.454 25.812 21.322 27.842 21.322C28.78 21.322 29.578 21.028 30.096 20.706C30.754 20.3 31.104 19.53 30.712 18.886C30.474 18.494 30.054 18.354 29.648 18.424C29.382 18.466 29.158 18.606 28.962 18.704C28.598 18.872 28.304 18.928 27.842 18.928C27.198 18.928 26.47 18.648 26.47 17.458V16.198ZM32.0249 21.084H34.8249V18.9L35.6649 18.088L37.4849 21.084H40.6489L37.5549 16.282L39.4029 14.504C39.9209 14.014 39.8369 13.02 39.2489 12.572C38.6609 12.124 37.7789 12.264 37.3029 12.796L34.8249 15.526V10.654C34.8249 9.73 34.1669 9.254 33.4389 9.254C32.7109 9.254 32.0249 9.73 32.0249 10.654V21.084ZM45.2066 21.322C46.2286 21.322 47.2226 21.028 47.6706 20.762C48.3426 20.37 48.6786 19.782 48.3846 19.096C48.2026 18.676 47.7546 18.508 47.2786 18.564C47.0406 18.592 46.8306 18.704 46.6206 18.774C46.2426 18.9 45.9486 18.956 45.2626 18.956C44.5906 18.956 43.6666 18.634 43.6666 17.682V17.668H48.6786C48.7206 17.43 48.7486 17.038 48.7486 16.8C48.7486 13.09 46.8306 12.334 44.8846 12.334C43.0926 12.334 40.8946 13.23 40.8946 16.212V17.444C40.8946 20.37 43.1766 21.322 45.2066 21.322ZM44.8986 14.602C45.5146 14.602 46.0746 14.91 46.0326 15.834H43.6666C43.6806 14.91 44.2826 14.602 44.8986 14.602ZM50.9967 18.452C50.9967 20.566 52.0747 21.322 53.9367 21.322C54.4127 21.322 54.9447 21.154 55.2667 20.944C55.6587 20.692 55.9107 20.216 55.7847 19.642C55.6867 19.18 55.2947 18.872 54.8327 18.872C54.5527 18.872 54.4267 18.942 54.2167 18.928C53.9787 18.914 53.7687 18.816 53.7687 18.396V14.924H54.5947C55.4767 14.924 55.8267 14.364 55.8267 13.776C55.8267 13.202 55.4907 12.6 54.5947 12.6H53.7687V11.144C53.7687 10.192 53.0827 9.758 52.3827 9.758C51.6827 9.758 50.9967 10.192 50.9967 11.144V12.6H50.5347C49.6387 12.6 49.3027 13.202 49.3027 13.776C49.3027 14.364 49.6527 14.924 50.5347 14.924H50.9967V18.452Z" fill="white"/>
</svg>
