<svg width="20" height="20" viewBox="0 0 20 20" fill="none" xmlns="http://www.w3.org/2000/svg">
<path d="M10 2C5.59059 2 2 5.59059 2 10C2 14.4094 5.59059 18 10 18C14.4094 18 18 14.4094 18 10C18 5.59059 14.4094 2 10 2ZM10 17.0588C6.10823 17.0588 2.94118 13.8918 2.94118 10C2.94118 6.10823 6.10823 2.94118 10 2.94118C13.8918 2.94118 17.0588 6.10823 17.0588 10C17.0588 13.8918 13.8918 17.0588 10 17.0588Z" fill="#6933FF"/>
<path d="M9.99977 7.76468C10.5196 7.76468 10.9409 7.3433 10.9409 6.8235C10.9409 6.3037 10.5196 5.88232 9.99977 5.88232C9.47997 5.88232 9.05859 6.3037 9.05859 6.8235C9.05859 7.3433 9.47997 7.76468 9.99977 7.76468Z" fill="#6933FF"/>
<path d="M10.9408 9.27525V9.04937V8.82349H8.58783V9.27525H9.52901V13.5294H8.35254V14H9.52901H10.9408H11.6467V13.5294H10.9408V9.27525Z" fill="#6933FF"/>
</svg>
