<svg width="70" height="70" viewBox="0 0 70 70" fill="none" xmlns="http://www.w3.org/2000/svg">
<circle cx="35" cy="35" r="35" fill="#040404"/>
<path d="M21.6714 51.8213V42.7333H18.0874V40.6213H27.8474V42.7333H24.2634V51.8213H21.6714ZM34.5258 52.0133C33.6405 52.0133 32.8191 51.8693 32.0618 51.5813C31.3151 51.2933 30.6645 50.888 30.1098 50.3653C29.5658 49.8426 29.1391 49.2293 28.8298 48.5253C28.5311 47.8213 28.3818 47.0533 28.3818 46.2213C28.3818 45.3893 28.5311 44.6213 28.8298 43.9173C29.1391 43.2133 29.5711 42.6 30.1258 42.0773C30.6805 41.5546 31.3311 41.1493 32.0778 40.8613C32.8245 40.5733 33.6351 40.4293 34.5098 40.4293C35.3951 40.4293 36.2058 40.5733 36.9418 40.8613C37.6885 41.1493 38.3338 41.5546 38.8778 42.0773C39.4325 42.6 39.8645 43.2133 40.1738 43.9173C40.4831 44.6106 40.6378 45.3786 40.6378 46.2213C40.6378 47.0533 40.4831 47.8266 40.1738 48.5413C39.8645 49.2453 39.4325 49.8586 38.8778 50.3813C38.3338 50.8933 37.6885 51.2933 36.9418 51.5813C36.2058 51.8693 35.4005 52.0133 34.5258 52.0133ZM34.5098 49.8053C35.0111 49.8053 35.4698 49.72 35.8858 49.5493C36.3125 49.3786 36.6858 49.1333 37.0058 48.8133C37.3258 48.4933 37.5711 48.1146 37.7418 47.6773C37.9231 47.24 38.0138 46.7546 38.0138 46.2213C38.0138 45.688 37.9231 45.2026 37.7418 44.7653C37.5711 44.328 37.3258 43.9493 37.0058 43.6293C36.6965 43.3093 36.3285 43.064 35.9018 42.8933C35.4751 42.7226 35.0111 42.6373 34.5098 42.6373C34.0085 42.6373 33.5445 42.7226 33.1178 42.8933C32.7018 43.064 32.3338 43.3093 32.0138 43.6293C31.6938 43.9493 31.4431 44.328 31.2618 44.7653C31.0911 45.2026 31.0058 45.688 31.0058 46.2213C31.0058 46.744 31.0911 47.2293 31.2618 47.6773C31.4431 48.1146 31.6885 48.4933 31.9978 48.8133C32.3178 49.1333 32.6911 49.3786 33.1178 49.5493C33.5445 49.72 34.0085 49.8053 34.5098 49.8053ZM42.5858 51.8213V40.6213H47.4338C48.4365 40.6213 49.3005 40.7866 50.0258 41.1173C50.7511 41.4373 51.3111 41.9013 51.7058 42.5093C52.1005 43.1173 52.2978 43.8426 52.2978 44.6853C52.2978 45.5173 52.1005 46.2373 51.7058 46.8453C51.3111 47.4533 50.7511 47.9226 50.0258 48.2533C49.3005 48.5733 48.4365 48.7333 47.4338 48.7333H44.0258L45.1778 47.5653V51.8213H42.5858ZM45.1778 47.8533L44.0258 46.6213H47.2898C48.0898 46.6213 48.6871 46.4506 49.0818 46.1093C49.4765 45.768 49.6738 45.2933 49.6738 44.6853C49.6738 44.0666 49.4765 43.5866 49.0818 43.2453C48.6871 42.904 48.0898 42.7333 47.2898 42.7333H44.0258L45.1778 41.5013V47.8533Z" fill="white"/>
</svg>
