<svg width="20" height="20" viewBox="0 0 20 20" fill="none" xmlns="http://www.w3.org/2000/svg">
<path d="M7.0281 17C13.0671 17 16.3688 11.6148 16.3688 6.94346C16.3688 6.79152 16.3688 6.63958 16.359 6.48763C17.0023 5.9894 17.5569 5.36396 17.9967 4.65724C17.4092 4.9364 16.7758 5.12721 16.1128 5.21201C16.7889 4.77385 17.3108 4.08127 17.5569 3.25795C16.9235 3.66078 16.2211 3.9576 15.4728 4.11661C14.8722 3.42756 14.0222 3 13.0769 3C11.2652 3 9.79487 4.58304 9.79487 6.53357C9.79487 6.81272 9.82441 7.07774 9.88021 7.33922C7.14954 7.19081 4.72738 5.78445 3.10933 3.64664C2.82708 4.16961 2.66626 4.77385 2.66626 5.4205C2.66626 6.64664 3.2439 7.72792 4.12677 8.36396C3.58851 8.34629 3.07979 8.18728 2.64 7.92226C2.64 7.93993 2.64 7.95406 2.64 7.9682C2.64 9.68198 3.77231 11.1095 5.27221 11.4346C4.99979 11.5159 4.70769 11.5583 4.40903 11.5583C4.19569 11.5583 3.99221 11.5336 3.792 11.4947C4.2121 12.9011 5.42318 13.9223 6.85744 13.9505C5.73497 14.8975 4.31713 15.4629 2.78113 15.4629C2.51856 15.4629 2.256 15.4452 2 15.4134C3.45067 16.417 5.17703 17.0035 7.03138 17.0035" fill="#444444"/>
</svg>
