<svg width="18" height="18" viewBox="0 0 18 18" fill="none" xmlns="http://www.w3.org/2000/svg">
<g clip-path="url(#clip0_97_884)">
<path d="M12.4358 0.11057C12.0145 -0.0727277 11.5243 -0.0250053 11.1561 0.234214L5.10181 4.51187H1.35815C0.609658 4.51187 0 5.05959 0 5.73204V12.2689C0 12.9414 0.609658 13.4891 1.35815 13.4891H5.10181L11.1549 17.7668C11.3722 17.9197 11.6306 18.001 11.9034 18.001C12.0881 18.001 12.2668 17.9641 12.4346 17.8904C12.8559 17.706 13.1179 17.3307 13.1179 16.9099V1.09105C13.1179 0.670222 12.8559 0.294951 12.4346 0.11057H12.4358ZM11.8515 1.19191V16.809L5.95533 12.6431V5.35786L11.8503 1.19191H11.8515ZM4.68773 5.6507V12.3492H1.35815C1.30865 12.3492 1.26761 12.3123 1.26761 12.2678V5.73204C1.26761 5.68758 1.30865 5.6507 1.35815 5.6507H4.68773Z" fill="#6933FF"/>
<path d="M16.1755 5.09653C16.056 4.99132 15.8991 4.93384 15.7325 4.93384C15.73 4.93384 15.7276 4.93384 15.7264 4.93384C15.5574 4.93492 15.398 4.99566 15.2797 5.1052C15.1614 5.21366 15.0974 5.35792 15.0986 5.50976C15.0999 5.6616 15.1675 5.80369 15.2894 5.91106C16.2202 6.73102 16.7333 7.82863 16.7333 9.00108C16.7333 10.1735 16.2431 11.2223 15.3534 12.0369C15.2351 12.1453 15.1699 12.2896 15.1723 12.4414C15.1747 12.5933 15.2411 12.7354 15.3618 12.8427C15.4813 12.9479 15.6383 13.0054 15.8061 13.0054C15.9739 13.0054 16.1381 12.9447 16.2588 12.8351C17.3828 11.8059 18.0021 10.4447 18.0021 9.00217C18.0021 7.55965 17.3538 6.1334 16.1779 5.0987L16.1755 5.09653Z" fill="#6933FF"/>
</g>
<defs>
<clipPath id="clip0_97_884">
<rect width="18" height="18" fill="white"/>
</clipPath>
</defs>
</svg>
