<svg width="20" height="20" viewBox="0 0 20 20" fill="none" xmlns="http://www.w3.org/2000/svg">
<g clip-path="url(#clip0_105_27)">
<path d="M13.4358 1.11057C13.0145 0.927272 12.5243 0.974995 12.1561 1.23421L6.10181 5.51187H2.35815C1.60966 5.51187 1 6.05959 1 6.73204V13.2689C1 13.9414 1.60966 14.4891 2.35815 14.4891H6.10181L12.1549 18.7668C12.3722 18.9197 12.6306 19.001 12.9034 19.001C13.0881 19.001 13.2668 18.9641 13.4346 18.8904C13.8559 18.706 14.1179 18.3307 14.1179 17.9099V2.09105C14.1179 1.67022 13.8559 1.29495 13.4346 1.11057H13.4358ZM12.8515 2.19191V17.809L6.95533 13.6431V6.35786L12.8503 2.19191H12.8515ZM5.68773 6.6507V13.3492H2.35815C2.30865 13.3492 2.26761 13.3123 2.26761 13.2678V6.73204C2.26761 6.68758 2.30865 6.6507 2.35815 6.6507H5.68773Z" fill="#777777"/>
<path d="M18.7066 10L19.8539 8.85268C20.0487 8.65793 20.0487 8.34207 19.8539 8.14607C19.6592 7.95131 19.3433 7.95131 19.1473 8.14607L18 9.29338L16.8527 8.14607C16.6579 7.95131 16.3408 7.95131 16.1461 8.14607C15.9513 8.34082 15.9513 8.65793 16.1461 8.85268L17.2934 10L16.1461 11.1473C15.9513 11.3421 15.9513 11.6579 16.1461 11.8539C16.3408 12.0487 16.6567 12.0487 16.8527 11.8539L18 10.7066L19.1473 11.8539C19.3421 12.0487 19.6579 12.0487 19.8539 11.8539C20.0499 11.6592 20.0487 11.3433 19.8539 11.1473L18.7066 10Z" fill="#777777"/>
</g>
<defs>
<clipPath id="clip0_105_27">
<rect width="20" height="20" fill="white"/>
</clipPath>
</defs>
</svg>
