<svg width="569" height="146" viewBox="0 0 569 146" fill="none" xmlns="http://www.w3.org/2000/svg">
<path d="M38.1385 126.497C36.6216 123.636 34.4036 120.014 32.826 117.215C30.8642 113.8 28.626 109.61 26.5967 106.195L26.5024 106.022C26.1518 105.509 25.8349 104.962 25.4844 104.449C25.1338 103.867 24.7158 103.424 24.2034 103.071C23.8461 102.759 23.4282 102.579 22.9697 102.572C22.4439 102.628 22.0124 102.787 21.5809 103.078C21.1832 103.272 20.8865 103.5 20.6169 103.764C20.3809 103.992 20.2124 104.359 20.0708 104.83C19.9966 105.1 19.9292 105.433 19.9832 105.772C20.0371 106.181 20.1652 106.52 20.2865 106.86C20.4753 107.268 20.5967 107.608 20.7922 107.947C21.0146 108.321 21.2034 108.598 21.3652 108.903L21.7427 109.651C23.4214 112.623 25.1203 115.823 26.8597 118.864C27.8709 120.637 29.5563 123.339 30.217 124.668C28.2619 123.948 25.0192 122.126 22.363 120.859C20.9 120.187 19.1405 119.543 18.1157 119.958C15.7966 120.983 16.5382 123.228 17.8528 126.151C19.1067 128.942 20.4618 131.637 21.7832 134.227C19.9629 133.313 15.8977 130.258 13.9898 129.032C11.5965 127.495 8.81221 125.818 6.19644 123.837C5.94026 123.629 5.64362 123.456 5.29306 123.214C4.93575 123.041 4.64586 122.861 4.25484 122.653L3.17617 122.327C2.85257 122.251 2.55594 122.279 2.29301 122.341C1.86154 122.431 1.47053 122.625 1.20086 122.888C0.964902 123.117 0.695235 123.449 0.492985 123.851C0.223318 124.246 0.0143261 124.717 0.00758438 125.188C-0.0328657 125.694 0.0884845 126.165 0.371635 126.546C0.722202 127.058 1.17389 127.474 1.68626 127.889C5.07732 130.425 6.46611 131.498 8.34029 132.683C10.2819 133.874 11.9943 135.024 13.646 136.105L20.1854 140.295L23.2596 142.214C23.9742 142.699 24.7832 143.024 25.5922 143.482C26.1788 143.766 26.9271 143.883 27.6215 143.731C31.4103 142.976 29.5563 139.055 28.4912 136.541C27.9586 135.35 25.6192 131.055 24.5338 128.229C26.1248 128.901 31.3092 131.983 32.2867 132.343C33.8845 132.953 35.7587 134.207 37.5317 133.909C39.8981 133.556 40.1677 131.644 39.5205 129.642C39.1497 128.485 38.6509 127.467 38.1452 126.511L38.1385 126.497Z" fill="white"/>
<path d="M63.3043 106.867C63.0009 106.631 62.6773 106.528 62.2256 106.479C61.929 106.479 61.5582 106.541 61.1807 106.666C60.8369 106.832 60.4795 107.061 60.0616 107.289C59.7447 107.49 59.3807 107.788 59.0233 108.086L57.3244 109.492L50.0771 115.366L44.4478 108.038L51.1019 102.468L52.8008 101.062C53.1581 100.764 53.4547 100.46 53.7244 100.113C54.0547 99.774 54.3244 99.4346 54.5199 99.1506C54.7491 98.8389 54.9177 98.5202 54.9177 98.2154C55.0323 97.7513 54.9716 97.3773 54.8031 97.0864C54.675 96.7678 54.412 96.4353 54.2098 96.172C53.9199 95.798 53.5221 95.5209 53.003 95.3963C52.5176 95.3062 52.0187 95.3547 51.4659 95.5625C50.8457 95.8326 50.185 96.1305 49.5783 96.5738C49.0389 97.024 48.4659 97.4327 47.8861 97.9107L47.7041 98.0561C45.7962 99.5731 44.4276 100.709 42.5062 102.358L41.0635 103.556L36.5668 97.6682L36.4792 97.5574L43.6726 91.545L45.2973 90.2012C45.6613 89.9033 45.9849 89.6332 46.2883 89.2591C46.5445 88.9821 46.8411 88.6773 47.0771 88.3656C47.2793 88.0193 47.3805 87.6868 47.4749 87.4305C47.522 86.9595 47.4951 86.6201 47.2996 86.2945C47.1985 86.0105 46.9625 85.7126 46.7333 85.4217C46.4434 85.0477 46.0726 84.8052 45.5939 84.6528C45.1085 84.5628 44.5759 84.639 44.0905 84.8607C43.4366 85.0962 42.7827 85.394 42.2366 85.8443C41.6635 86.2529 41.0905 86.7309 40.5175 87.1465L40.3759 87.2642C38.5017 88.7535 36.8432 90.125 34.9556 91.7458C33.0005 93.4291 32.8926 93.5191 31.16 94.9529L31.187 94.9876C31.0117 95.0707 30.9038 95.1607 30.7218 95.3062C30.2903 95.6664 30.0476 96.0474 29.8656 96.5669C29.6499 97.0518 29.6971 97.5643 29.8049 98.0838C29.9398 98.7072 30.169 99.3099 30.5398 99.8571C30.9173 100.342 31.2611 100.848 31.6319 101.402L31.7735 101.589C33.0207 103.251 33.9376 104.505 35.3398 106.285L39.2096 111.217L43.3287 116.62L45.6007 119.515C45.749 119.702 45.8838 119.952 46.0321 120.139L46.4973 120.734C46.74 120.963 46.976 121.192 47.185 121.385C47.3872 121.642 47.6636 121.843 47.94 122.043C48.0344 122.085 48.1625 122.099 48.2569 122.147C48.2839 122.182 48.4119 122.265 48.54 122.279C48.9445 122.494 49.3356 122.535 49.7064 122.473C50.3064 122.404 50.8322 122.092 51.3109 121.635C52.8277 120.381 53.0098 120.229 54.9177 118.712C56.9671 117.077 58.9222 115.463 60.7694 113.87L60.9852 113.69C61.4975 113.205 62.0773 112.727 62.5897 112.242C63.2032 111.736 63.6549 111.175 63.992 110.531C64.3358 110.06 64.4571 109.534 64.4774 109.028C64.4706 108.488 64.3156 108.058 63.9987 107.657C63.8032 107.331 63.5335 107.061 63.3245 106.867H63.3043Z" fill="white"/>
<path d="M84.2303 91.7042C83.9673 91.4895 83.6572 91.3579 83.1651 91.3025C82.9089 91.254 82.5718 91.2609 82.2145 91.3994C81.8572 91.538 81.4999 91.6765 81.0954 91.912C80.7246 92.1198 80.3201 92.3484 80.0167 92.5701L78.2302 93.8515L70.6458 99.1643L58.3153 80.6422L57.8366 79.9357C57.6546 79.6655 57.4389 79.3469 57.304 78.9798C57.095 78.6681 56.8051 78.4118 56.5287 78.0862C56.2793 77.8022 55.9894 77.539 55.7534 77.3658C55.4568 77.1719 55.1399 77.0472 54.8838 76.9987C54.4186 76.9849 54.0208 76.9779 53.6905 77.158C53.3601 77.3381 52.9894 77.5459 52.6455 77.7884C52.2275 78.0862 51.8905 78.5018 51.7017 78.9867C51.4792 79.4924 51.4253 79.998 51.5399 80.4967C51.5938 81.1548 51.823 81.7435 52.1534 82.3185C52.4972 82.8241 52.8276 83.399 53.1377 83.9324L53.2725 84.1263C54.4253 85.9135 55.2613 87.2295 56.5355 89.1067L60.0883 94.3433L63.8569 100.065C64.9963 101.748 66.048 103.549 67.43 105.17C67.5918 105.405 67.848 105.627 68.084 105.807C70.3963 107.463 73.4706 104.332 75.4998 102.995C77.6167 101.533 79.5987 100.12 81.5471 98.6656L81.7021 98.5548C82.2617 98.0422 82.8684 97.6058 83.4145 97.1556C83.9876 96.7469 84.4797 96.2205 84.9179 95.6178C85.228 95.1607 85.4033 94.7451 85.4303 94.2048C85.4438 93.7268 85.3696 93.2004 85.1067 92.8125C84.8977 92.5008 84.4999 91.912 84.237 91.6904L84.2303 91.7042Z" fill="white"/>
<path d="M104.61 73.8816C103.363 73.0435 101.799 73.5075 101.03 74.4219C100.012 75.5509 99.702 77.5181 99.0885 78.5087C97.2885 81.7296 93.4188 83.0595 90.1693 81.5634C86.0366 79.6654 83.3063 73.7915 82.8343 69.0883C82.3759 64.5928 86.3872 60.7277 90.8097 62.2862C92.1378 62.7988 93.6143 63.3875 94.848 62.0715C97.8615 58.9891 92.6165 56.1144 90.0614 55.6365C85.9827 54.7637 80.3264 57.576 78.1893 61.5104C75.3241 66.6085 76.0387 73.1127 78.1017 77.2826C80.3467 81.9582 84.1625 87.936 89.6974 88.8018C94.3491 89.543 99.284 87.7212 102.331 84.7912C105.021 82.0759 107.859 76.1051 104.617 73.8816H104.61Z" fill="white"/>
<path d="M121.688 46.133C116.774 41.4644 110.14 39.7673 104.126 46.4794C100.351 50.6562 100.897 57.7284 102.636 62.0507C104.504 66.7401 108.279 72.1499 113.335 73.8124C117.522 75.1769 122.046 74.0202 125.194 71.3395C127.473 69.4208 129.03 66.6501 129.212 63.5192C129.273 62.1546 129.212 60.8524 128.922 59.4047C128.174 54.8885 125.416 49.6449 121.682 46.133H121.688ZM121.028 67.1419C119.369 68.5272 116.983 68.9567 114.744 67.9731C111.818 66.6501 109.6 63.0551 108.38 60.0073C107.221 57.1951 106.412 53.2953 108.272 50.8432C111.441 46.708 114.845 47.6292 117.832 50.6701C120.219 53.1221 122.086 56.7379 122.706 59.7233C122.915 60.5753 123.016 61.4273 122.996 62.2377C123.037 64.3435 122.396 66.0059 121.028 67.135V67.1419Z" fill="white"/>
<path d="M162.117 49.0077C160.587 45.0179 158.841 40.6056 157.303 36.6227C156.043 33.3463 154.694 30.0977 153.434 26.8213C153.299 26.468 153.117 26.1286 152.921 25.7477C152.76 25.4567 152.537 25.1381 152.328 24.861C152.079 24.6047 151.822 24.4524 151.519 24.3208C151.115 24.1753 150.744 24.1199 150.339 24.2376C149.975 24.3346 149.618 24.4316 149.186 24.6047C147.346 25.4013 146.712 29.1903 146.422 30.9012C145.768 34.9048 145.371 36.8582 144.899 39.2548C144.852 39.7882 144.548 41.1874 144.38 41.6654C142.782 40.6263 140.84 38.9501 138.38 37.0798C137.247 36.2071 135.164 34.5446 133.849 33.845C132.811 33.3463 131.456 32.1549 130.202 32.4043C129.838 32.5013 129.433 32.6121 129.049 32.7714C128.577 32.9653 128.152 33.2909 127.822 33.7273C127.492 34.1706 127.37 34.6278 127.323 35.1611C127.31 35.7776 127.364 36.4287 127.6 37.0452C128.382 39.5943 129.265 42.1572 130.256 44.727L132.541 50.6632L135.123 57.5068L136.411 60.9771C136.721 61.7737 137.065 62.5565 137.415 63.3322C137.793 64.0526 138.568 64.9116 139.492 65.0986C142.357 65.4241 143.631 62.9028 142.87 60.9148C143.025 60.7971 135.912 42.1779 135.872 41.9355C139.087 44.727 141.777 46.4033 143.834 47.6154C144.609 48.0726 145.977 48.793 146.894 48.322C148.479 47.5254 149.011 45.9253 150.555 36.4426C151.391 38.3544 151.398 38.5068 151.465 38.6868C152.308 40.751 152.24 40.5779 152.975 42.4827L155.625 49.2432L156.953 52.6997C157.593 54.2305 158.18 56.4055 160.162 56.7726C160.93 56.8211 161.712 56.6549 162.427 56.0592C162.886 55.8236 163.162 55.505 163.357 55.1171C163.506 54.8539 163.6 54.4521 163.614 54.092C163.614 53.3231 163.438 52.4711 163.209 51.7438C162.892 50.7948 162.434 49.8597 162.11 49.0146L162.117 49.0077Z" fill="white"/>
<path d="M187.669 43.8125C187.474 43.4731 187.211 43.2584 186.806 43.0367C186.53 42.9259 186.166 42.8428 185.768 42.8151C185.384 42.8358 184.973 42.919 184.501 42.9605C184.13 43.0298 183.692 43.1683 183.247 43.3069L181.163 43.958L172.312 46.6386L169.743 37.6823L177.934 35.0571L180.017 34.399C180.462 34.2605 180.847 34.0873 181.217 33.8726C181.649 33.6856 182.02 33.4709 182.303 33.2838C182.633 33.083 182.903 32.8475 183.011 32.5635C183.287 32.1756 183.368 31.8015 183.314 31.469C183.314 31.1227 183.186 30.714 183.092 30.3954C182.957 29.9382 182.687 29.5295 182.256 29.2109C181.838 28.9477 181.359 28.7953 180.772 28.7814C180.098 28.7953 179.377 28.823 178.656 28.9962C177.988 29.204 177.314 29.3702 176.599 29.5919L176.377 29.6611C174.058 30.34 172.372 30.8733 169.992 31.6699L168.219 32.231L166.177 25.0479L166.136 24.9094L174.988 22.0763L176.984 21.446C177.429 21.3075 177.826 21.1828 178.244 20.9542C178.588 20.7949 178.972 20.6287 179.296 20.4209C179.613 20.1715 179.822 19.9083 180.004 19.7005C180.22 19.2849 180.314 18.9524 180.253 18.5783C180.26 18.2736 180.152 17.9134 180.044 17.5462C179.91 17.0891 179.653 16.722 179.262 16.3964C178.844 16.1263 178.318 15.9947 177.793 16.0154C177.105 15.9808 176.384 16.0154 175.716 16.2163C175.035 16.3826 174.327 16.6042 173.646 16.7635L173.471 16.8189C171.193 17.4839 169.157 18.1281 166.817 18.9108C164.39 19.7212 164.262 19.7628 162.132 20.4347L162.145 20.4763C161.956 20.4901 161.822 20.5317 161.599 20.6009C161.067 20.7672 160.709 21.0304 160.345 21.446C159.968 21.8131 159.826 22.3049 159.738 22.8314C159.637 23.4617 159.637 24.1128 159.779 24.7639C159.954 25.3527 160.089 25.9623 160.231 26.6134L160.298 26.842C160.851 28.8576 161.255 30.3746 161.902 32.5635L163.709 38.6244L165.577 45.2117L166.635 48.7651C166.703 48.9937 166.743 49.2777 166.81 49.5063L167.026 50.2336C167.168 50.5384 167.303 50.8432 167.431 51.0995C167.525 51.4181 167.707 51.709 167.896 51.9999C167.97 52.0761 168.085 52.1385 168.152 52.2147C168.166 52.2632 168.253 52.3809 168.368 52.4433C168.664 52.7965 169.015 52.9905 169.379 53.0736C169.966 53.2398 170.566 53.1498 171.172 52.9073C173.033 52.3255 173.255 52.2493 175.575 51.5705C178.069 50.8362 180.462 50.0812 182.761 49.3124L183.024 49.2292C183.678 48.9729 184.386 48.7513 185.04 48.495C185.795 48.2595 186.415 47.9132 186.955 47.4421C187.447 47.1374 187.75 46.694 187.952 46.2299C188.141 45.7243 188.148 45.2671 188 44.7684C187.932 44.3874 187.784 44.0411 187.656 43.7779L187.669 43.8125Z" fill="white"/>
<path d="M222.981 6.67828C222.584 6.31808 222.031 6.13799 221.451 6.06179C220.662 5.87477 219.914 5.93019 219.132 6.03409C215.653 6.62286 212.141 7.26705 208.642 8.00821C206.559 8.46538 204.732 8.82557 202.595 9.2481C202.049 9.35893 201.59 9.44898 201.098 9.59444C200.606 9.7399 200.12 9.93385 199.783 10.1417C199.311 10.3841 198.779 10.8274 198.583 11.056C198.226 11.4162 198.057 11.7902 198.031 12.1366C198.004 12.4829 198.071 12.8569 198.138 13.231C198.233 13.7436 198.502 14.18 198.893 14.4917C199.338 14.838 199.844 15.0319 200.565 15.0804C201.044 15.1289 202.028 15.0804 202.399 15.0597C203.242 15.0389 207.718 14.2077 208.446 14.0622L212.943 38.105C212.984 38.3405 213.105 38.7076 213.246 38.9708C213.354 39.2895 213.496 39.5527 213.752 39.8921C213.948 40.1899 214.177 40.3908 214.5 40.6194C214.817 40.7995 215.255 40.8618 215.761 40.8064C216.617 40.8341 217.372 40.5848 217.945 40.1345C218.269 39.8297 218.532 39.4834 218.647 39.0747L218.727 38.77C218.721 38.7215 218.748 38.6176 218.856 38.4513C218.883 38.105 218.923 37.8071 218.869 37.5231C218.842 37.1422 218.829 36.8027 218.822 36.5118C218.815 36.2209 218.768 35.9923 218.727 35.7568C218.64 35.5282 218.606 35.3412 218.552 35.0641L217.885 31.5107C215.963 21.2175 215.222 16.5143 214.413 12.6976C215.458 12.4898 216.509 12.282 217.588 12.0257L219.907 11.5686C220.359 11.4785 220.817 11.3885 221.222 11.2638C221.707 11.0698 222.105 10.9452 222.489 10.7235C222.833 10.5573 223.177 10.3495 223.413 10.107C223.669 9.71912 223.79 9.352 223.817 9.00567C223.804 8.66625 223.77 8.2368 223.696 7.86275C223.608 7.39866 223.345 7.01076 222.961 6.69906L222.981 6.67828Z" fill="white"/>
<path d="M234.832 4.75256C229.904 7.36395 228.071 14.2007 228.28 18.8762C228.489 23.9328 230.248 30.34 234.455 33.6718C237.94 36.4148 242.572 36.9135 246.428 35.4866C249.206 34.4753 251.586 32.418 252.792 29.5365C253.298 28.2758 253.675 27.029 253.878 25.5675C254.666 21.0581 253.804 15.1704 251.457 10.5572C248.376 4.45471 242.7 0.534162 234.826 4.75256H234.832ZM247.925 23.6972C247.837 24.57 247.655 25.4082 247.365 26.1632C246.705 28.1581 245.552 29.5019 243.893 30.0837C241.878 30.8041 239.491 30.3746 237.711 28.6707C235.399 26.4056 234.502 22.2495 234.361 18.9593C234.199 15.9116 234.725 11.9633 237.293 10.3078C241.642 7.53019 244.54 9.57358 246.34 13.4803C247.77 16.6181 248.329 20.6702 247.932 23.6972H247.925Z" fill="white"/>
<path d="M295.536 3.69272C295.536 3.31175 295.536 2.93078 295.482 2.50132C295.341 2.12035 295.294 1.78786 295.152 1.40689C295.058 1.07441 294.916 0.838896 294.64 0.644947C294.356 0.312462 293.938 0.12544 293.568 0.0838791C293.244 0.0353918 292.826 -0.00616872 292.361 0.00075804C291.849 0.00075804 291.343 0.153147 290.925 0.388657C290.466 0.728068 290.096 1.06055 289.961 1.5385C289.637 2.16191 289.502 2.77839 289.462 3.4018C289.422 4.06677 289.381 4.78715 289.381 5.40363C289.307 8.26438 289.28 10.7857 289.293 13.598H289.246C285.768 13.6257 282.612 13.5495 279.417 13.5703C278.534 13.6257 277.934 13.6257 277.421 13.6326L277.462 5.77075L277.448 3.8174C277.448 3.43643 277.448 3.05546 277.394 2.626C277.347 2.24503 277.253 1.91254 277.111 1.53157C277.017 1.19909 276.828 0.963578 276.599 0.769628C276.275 0.437144 275.945 0.250121 275.527 0.208561C275.156 0.167 274.785 0.118513 274.32 0.118513C273.808 0.118513 273.302 0.270902 272.837 0.513338C272.419 0.852749 272.102 1.18523 271.92 1.66318C271.597 2.28659 271.462 2.90307 271.421 3.52648C271.381 4.19145 271.381 4.91183 271.34 5.52831V5.72226C271.266 7.91112 271.226 9.48349 271.286 11.7762C271.3 14.0621 271.313 16.2509 271.286 18.2528L271.239 25.2557L271.219 29.017V29.7304C271.179 30.0144 271.179 30.2568 271.226 30.5408C271.273 30.8733 271.367 31.2058 271.367 31.4898C271.415 31.8708 271.462 32.2033 271.603 32.5357L271.745 32.8197C271.745 32.9167 271.792 33.0068 271.839 33.1037C272.122 33.5263 272.352 33.8172 272.729 34.0527C273.43 34.3783 274.219 34.4683 275.095 34.2744C275.601 34.1774 276.019 34.0319 276.295 33.741C276.619 33.4986 276.801 33.2146 276.943 32.8821C277.078 32.5011 277.212 32.1686 277.26 31.8292C277.347 31.4482 277.394 31.1642 277.394 30.9703V30.4924L277.408 19.2502L286.819 19.1394L289.32 19.1186V25.1172L289.293 28.8784C289.293 29.1624 289.293 29.4049 289.206 29.5919C289.206 29.8759 289.206 30.1183 289.307 30.4023C289.354 30.7348 289.401 31.0673 289.408 31.3582C289.455 31.7392 289.502 32.0717 289.644 32.4041C289.691 32.5011 289.738 32.5912 289.738 32.6881C289.786 32.7851 289.833 32.8821 289.927 32.9721C290.116 33.4016 290.392 33.6856 290.77 33.9211C291.464 34.2467 292.253 34.3367 293.136 34.1428C293.649 34.0458 294.06 33.9003 294.336 33.6094C294.66 33.367 294.842 33.083 294.977 32.7505C295.111 32.3695 295.253 32.037 295.294 31.6976C295.381 31.3166 295.428 31.0326 295.428 30.8387V30.3607L295.543 5.63221L295.529 3.67887L295.536 3.69272Z" fill="white"/>
<path d="M328.104 32.0993C328.03 31.8084 327.996 31.7114 327.996 31.663L320.203 6.58116L319.98 5.79844C319.872 5.41054 319.704 5.10576 319.603 4.66937C319.495 4.28148 319.38 3.93514 319.178 3.54031C318.976 3.13856 318.767 2.79222 318.558 2.48744C318.349 2.18267 318.086 1.96794 317.816 1.80862C316.96 1.40687 315.713 1.3099 314.809 1.57311C314.519 1.69087 314.23 1.86404 313.98 2.12725C313.731 2.39047 313.427 2.70217 313.212 3.06929C312.955 3.42948 312.787 3.75504 312.618 4.12216C312.45 4.53777 312.241 4.80791 312.072 5.17503L311.735 5.91619L300.295 29.4741C300.295 29.5226 300.241 29.6126 300.126 29.8897C300.018 30.1183 299.897 30.4438 299.829 30.7278C299.755 31.1019 299.681 31.4344 299.654 31.8569C299.627 32.2379 299.695 32.5773 299.897 32.9305C300.059 33.2284 300.362 33.5886 300.76 33.8102C301.508 34.3505 302.283 34.5514 303.173 34.4821C303.551 34.4198 303.982 34.2605 304.373 33.9557C304.474 33.8657 304.569 33.8241 304.623 33.7341C304.67 33.6925 304.778 33.554 304.872 33.5124C305.169 33.2492 305.385 32.9305 305.54 32.6535C305.749 32.3833 305.904 32.1063 306.119 31.7946C306.274 31.566 306.382 31.3374 306.497 31.1088C306.605 30.8802 306.672 30.5962 306.787 30.3676L307.933 28.1165C312.14 28.4974 316.441 28.7883 320.648 29.1278L321.443 31.5313C321.47 31.7738 321.544 32.0647 321.618 32.3071C321.645 32.5496 321.767 32.7989 321.888 33.0483C322.05 33.3946 322.165 33.6925 322.286 33.9903C322.448 34.2882 322.609 34.6345 322.866 34.9462C322.953 35.0017 323.034 35.1471 323.081 35.2025C323.122 35.2995 323.209 35.3549 323.297 35.4588C323.641 35.819 324.045 36.0407 324.403 36.1653C325.272 36.3801 326.068 36.297 326.89 35.8813C327.322 35.722 327.666 35.4173 327.875 35.1471C328.131 34.8354 328.246 34.5098 328.279 34.1289C328.313 33.6994 328.293 33.3669 328.272 32.979C328.246 32.6881 328.178 32.3487 328.104 32.1063V32.0993ZM310.677 21.9724L311.668 19.9498C312.591 18.2112 313.569 16.2786 314.648 14.3114C314.917 13.7642 315.241 13.1616 315.47 12.6074C315.659 13.1962 315.888 13.8335 316.077 14.4222C316.845 16.5349 317.533 18.5991 318.18 20.4624L318.854 22.6166L310.67 21.9655L310.677 21.9724Z" fill="white"/>
<path d="M355.373 8.43767C354.955 8.12597 354.443 7.80041 353.964 7.53026C352.38 6.54666 350.31 5.95789 348.544 5.56999C345.915 4.98814 343.157 4.57947 340.467 4.08074C339.011 3.78981 338.27 4.00454 337.845 4.32318C337.589 4.47556 337.407 4.73185 337.265 5.04356C337.083 5.29985 336.888 5.65311 336.78 6.02716C336.679 6.34579 336.571 6.76139 336.51 7.14237L332.31 33.8519C332.256 34.1844 332.27 34.4269 332.31 34.7663C332.357 35.0641 332.391 35.452 332.479 35.8053C332.573 36.1101 332.701 36.4703 332.903 36.6988C333.234 36.9967 333.53 37.1906 333.975 37.3569C334.818 37.6894 335.654 37.7309 336.362 37.4123C337.171 37.066 337.751 36.3387 337.953 35.6529C338.067 35.2373 338.209 34.6347 338.249 34.3507C338.33 33.8312 338.445 33.4156 338.519 32.9445L339.861 24.4316L340.73 24.577C341.93 24.7294 343.016 25.0065 344.31 25.1242C344.775 25.1519 345.288 25.1866 345.787 25.2766L349.306 36.0408C349.515 36.7958 349.832 37.4816 350.027 38.0426C350.303 38.666 350.607 39.1509 351.079 39.712C351.396 40.0999 351.773 40.3562 352.272 40.4878C352.764 40.6679 353.236 40.6471 353.715 40.5848C354.106 40.5016 354.497 40.377 354.8 40.2315C355.11 40.0445 355.38 39.8436 355.576 39.4903C355.704 39.2687 355.798 38.95 355.805 38.6106C355.805 38.3197 355.778 37.8833 355.744 37.4885C355.616 37.1283 355.535 36.7266 355.407 36.3664C355.313 36.0616 355.191 35.6529 355.09 35.3966L354.793 34.5793L351.948 25.1796C352.097 25.1519 352.333 25.145 352.481 25.0757C356.081 24.2722 358.083 21.4184 358.603 18.0797C359.054 15.212 358.393 11.9634 356.593 9.64293C356.283 9.20654 355.919 8.85328 355.373 8.43074V8.43767ZM352.023 16.9022C351.551 18.9941 349.137 20.3309 346.987 19.9776L340.717 18.9386C341.283 15.3159 341.762 12.8916 342.079 10.2871C343.953 10.5988 346.198 10.9729 347.971 11.3608C350.924 11.998 352.744 13.8405 352.029 16.9091L352.023 16.9022Z" fill="white"/>
<path d="M372.895 14.9765C372.975 14.6025 373.09 14.2908 373.178 13.8682C373.259 13.4942 373.292 13.1132 373.333 12.6838C373.366 12.3028 373.299 11.9426 373.292 11.5547C373.225 11.1945 373.137 10.9313 372.955 10.6958C372.706 10.301 372.382 10.0308 372.032 9.89921C371.681 9.7676 371.283 9.62907 370.832 9.53209C370.38 9.42819 369.847 9.4559 369.348 9.5875C368.823 9.80916 368.486 10.0724 368.155 10.488C367.757 11.0352 367.441 11.5963 367.272 12.192C367.13 12.8431 366.935 13.5288 366.76 14.1245L366.719 14.3116C366.173 16.4311 365.843 17.9689 365.364 20.1993C364.885 22.4297 364.427 24.5701 363.962 26.5165L362.452 33.3463L361.622 37.0105L361.474 37.7101C361.366 37.9803 361.319 38.2089 361.306 38.4998C361.279 38.8392 361.258 39.1717 361.245 39.4626C361.164 39.8367 361.184 40.183 361.211 40.5293C361.238 40.6332 361.306 40.7441 361.333 40.848C361.312 40.938 361.333 41.0419 361.407 41.1597C361.494 41.6168 361.71 41.9562 361.98 42.261C362.587 42.739 363.382 43.016 364.238 43.016C364.757 43.0368 365.196 42.9883 365.526 42.7667C365.89 42.6074 366.133 42.3649 366.382 42.0809C366.598 41.7346 366.76 41.4367 366.915 41.125C367.043 40.7648 367.144 40.4947 367.184 40.3077L367.286 39.8436L372.726 15.7592L372.895 14.9696V14.9765Z" fill="white"/>
<path d="M398.28 21.5278C397.896 21.1746 397.464 20.8005 397.026 20.475C395.347 19.2074 393.177 18.3415 391.222 17.732C389.981 17.3302 388.761 17.0324 387.554 16.686C384.527 15.7717 381.5 15.0582 380.57 18.5008L373.538 44.5801C373.477 44.8087 373.444 45.0996 373.491 45.4598C373.41 46.478 373.545 47.4062 374.482 48.0157C376.673 49.1794 379.242 49.8167 381.581 50.4332C383.415 50.9527 386.078 51.4168 387.932 51.4999C394.734 51.9571 397.566 46.8243 397.303 41.3661C397.195 38.914 396.399 37.0576 394.963 35.409C400.289 33.8574 402.082 27.4017 399.237 22.7816C399.022 22.3244 398.664 21.8742 398.28 21.5209V21.5278ZM388.97 45.5221C388.019 46.1871 385.72 45.7853 383.866 45.3559C382.377 44.9818 381.102 44.3723 380.603 43.5341C380.152 42.7168 380.651 41.5739 380.873 40.7426C381.271 39.2742 381.891 37.6741 382.228 36.0879C382.639 34.377 383.711 34.8757 385.417 35.3121C387.163 35.8108 388.977 36.5727 390.062 38.0689C391.707 40.1677 391.093 44.0467 388.97 45.5152V45.5221ZM394.067 28.5862C393.291 30.7404 391.849 31.4608 389.604 31.2184C387.595 30.9898 383.792 30.4564 384.507 27.9905C384.803 26.8891 385.161 25.7531 385.471 24.6033C386.152 21.7287 387.021 22.4214 390.702 23.5712C393.446 24.4509 395.031 25.8917 394.067 28.5862Z" fill="white"/>
<path d="M415.308 23.8219C409.76 23.8911 405.148 29.1693 403.301 33.4501C401.285 38.0702 400.072 44.6091 402.384 49.5202C404.312 53.5792 408.236 56.1491 412.301 56.6409C415.227 57.0149 418.248 56.2668 420.587 54.2442C421.591 53.3507 422.468 52.4086 423.284 51.1964C425.953 47.5253 427.747 41.8592 427.652 36.6572C427.551 29.7858 424.18 23.6695 415.301 23.8219H415.308ZM418.773 46.7841C418.315 47.5253 417.789 48.1902 417.203 48.7305C415.746 50.2128 414.128 50.8847 412.389 50.6423C410.272 50.3652 408.324 48.8829 407.474 46.5417C406.389 43.4523 407.4 39.324 408.701 36.3108C409.881 33.5055 412.072 30.2222 415.086 29.9174C420.189 29.4256 421.888 32.5912 421.794 36.9135C421.713 40.3768 420.445 44.2627 418.773 46.7841Z" fill="white"/>
<path d="M476.763 56.8209C477.121 56.3153 477.519 55.8235 477.869 55.3178C478.287 54.7845 478.557 54.2372 478.712 53.6208C478.88 53.1775 478.901 52.7064 478.759 52.2562C478.537 51.7644 478.247 51.4042 477.829 51.0786C477.519 50.76 477.208 50.5453 476.878 50.3721C476.588 50.2197 476.197 50.1782 475.718 50.192C475.449 50.2128 475.118 50.2544 474.829 50.4206C474.471 50.6076 474.202 50.8431 473.932 51.0786C473.622 51.3973 473.345 51.6328 473.096 51.9237C472.826 52.2631 472.638 52.5402 472.408 52.7896L471.849 53.406C469.678 56.0174 467.298 58.7258 465.087 61.4203C463.793 62.9857 461.871 65.514 460.867 66.5946C460.88 64.4611 461.48 60.7207 461.763 57.7145C461.898 56.0728 461.905 54.1541 461.183 53.3021C459.471 51.3973 457.658 52.8519 455.406 55.1031C453.262 57.2435 451.233 59.4462 449.298 61.5865C449.534 59.5224 450.997 54.5628 451.482 52.3116C452.102 49.4855 452.716 46.223 453.667 43.0367C453.774 42.718 453.835 42.3786 453.943 41.9492C453.99 41.5474 454.051 41.2011 454.118 40.7578L454.064 39.6079C454.024 39.2685 453.902 38.9915 453.754 38.7559C453.532 38.368 453.222 38.0494 452.891 37.8762C452.601 37.7239 452.21 37.5715 451.772 37.5091C451.314 37.3775 450.822 37.336 450.383 37.4814C449.905 37.6061 449.514 37.8832 449.257 38.2849C448.9 38.7975 448.671 39.3655 448.462 40.0097C447.255 44.138 446.729 45.8351 446.264 48.0517C445.819 50.3306 445.327 52.3739 444.882 54.3273L443.203 62.0506L442.455 65.6664C442.246 66.5184 442.219 67.4119 442.064 68.3471C441.997 69.0051 442.138 69.774 442.509 70.3974C444.457 73.8192 447.444 70.7229 449.399 68.8596C450.316 67.9453 453.491 64.2603 455.716 62.2723C455.622 64.0386 454.509 70.0857 454.509 71.1524C454.482 72.8979 453.95 75.1353 454.813 76.7561C455.918 78.9381 457.765 78.564 459.39 77.2756C460.327 76.5345 461.096 75.7102 461.81 74.9067C463.941 72.4893 466.53 69.1367 468.572 66.6777C471.06 63.6438 474.168 60.0834 476.629 56.9872L476.757 56.8417L476.763 56.8209Z" fill="white"/>
<path d="M501.251 76.2437C502.572 69.504 500.536 62.7989 491.833 61.0118C486.399 59.8689 480.797 64.0249 478.113 67.8C475.188 71.873 472.653 78.0031 473.9 83.3021C474.945 87.6867 478.255 91.0531 482.125 92.4246C484.902 93.429 488.017 93.3528 490.714 91.8913C491.88 91.2332 492.925 90.5059 493.983 89.4946C497.347 86.4884 500.273 81.3488 501.251 76.2437ZM490.478 84.2026C489.878 84.826 489.224 85.3594 488.536 85.7611C486.803 86.8971 485.091 87.1949 483.439 86.5785C481.424 85.8442 479.833 83.974 479.482 81.5012C479.057 78.2456 480.898 74.4289 482.792 71.7691C484.525 69.2893 487.343 66.5532 490.356 66.9134C495.44 67.5507 496.451 71.0071 495.467 75.2117C494.671 78.5781 492.628 82.0969 490.471 84.1957L490.478 84.2026Z" fill="white"/>
<path d="M524.954 96.4006C526.639 94.0663 527.502 90.8661 526.949 87.9569C526.875 87.4235 526.7 86.9386 526.41 86.3014C526.174 85.8234 525.87 85.297 525.567 84.826C524.603 83.2051 523.025 81.702 521.63 80.5245C519.554 78.7651 517.288 77.0957 515.124 75.3848C513.958 74.4359 513.21 74.2835 512.691 74.3597C512.394 74.3735 512.117 74.512 511.848 74.7268C511.571 74.8722 511.241 75.0939 510.978 75.371C510.749 75.6134 510.459 75.9251 510.243 76.2299L494.555 97.9591C494.36 98.2293 494.259 98.4509 494.144 98.7696C494.057 99.0536 493.908 99.4207 493.827 99.7739C493.773 100.086 493.726 100.474 493.807 100.764C493.969 101.18 494.144 101.499 494.461 101.859C495.054 102.552 495.782 102.988 496.551 103.036C497.421 103.106 498.263 102.739 498.755 102.226C499.039 101.907 499.436 101.443 499.605 101.208C499.908 100.785 500.191 100.474 500.468 100.086L505.47 93.1589L506.178 93.6992C507.176 94.3988 508.012 95.1538 509.111 95.8742C509.508 96.1166 509.947 96.3937 510.358 96.7054L508.666 107.927C508.511 108.696 508.49 109.451 508.41 110.039C508.376 110.725 508.423 111.3 508.598 112.02C508.706 112.512 508.929 112.921 509.306 113.274C509.663 113.662 510.088 113.87 510.547 114.036C510.924 114.147 511.335 114.223 511.673 114.237C512.037 114.216 512.36 114.168 512.691 113.946C512.906 113.808 513.135 113.572 513.291 113.274C513.419 113.018 513.594 112.616 513.742 112.256C513.783 111.875 513.897 111.48 513.938 111.099C513.992 110.781 514.066 110.365 514.086 110.088L514.194 109.222L515.879 99.5315C516.021 99.58 516.23 99.6839 516.398 99.6908C519.958 100.681 523.005 99.0951 524.967 96.3798L524.954 96.4006ZM513.796 92.584L508.693 88.6981C510.823 85.7542 512.333 83.8216 513.776 81.6605C515.3 82.8242 517.127 84.2164 518.522 85.4009C520.861 87.3612 521.65 89.8617 519.641 92.2445C518.286 93.8793 515.542 93.9277 513.789 92.5909L513.796 92.584Z" fill="white"/>
<path d="M533.327 126.982C533.105 126.663 532.882 126.338 532.566 125.991C532.282 125.673 531.959 125.327 531.676 125.084L530.024 123.623L523.12 117.402L537.5 100.515L538.047 99.8638C538.256 99.6144 538.498 99.3235 538.808 99.0949C539.051 98.804 539.22 98.4576 539.456 98.0974C539.665 97.7788 539.833 97.4255 539.948 97.1485C540.056 96.8021 540.096 96.4627 540.076 96.1926C539.975 95.7285 539.88 95.3267 539.631 95.0427C539.381 94.7587 539.091 94.4401 538.775 94.163C538.39 93.8236 537.912 93.5881 537.413 93.5258C536.88 93.4288 536.395 93.505 535.95 93.7405C535.343 93.9552 534.844 94.3293 534.386 94.8072C533.995 95.2782 533.536 95.7493 533.105 96.1926L532.957 96.3727C531.561 97.9658 530.53 99.1295 529.073 100.861L525.022 105.703L520.565 110.877C519.264 112.429 517.828 113.925 516.648 115.705C516.466 115.92 516.325 116.239 516.217 116.516C515.233 119.224 518.947 121.51 520.714 123.193C522.615 124.939 524.449 126.553 526.303 128.132L526.444 128.257C527.064 128.679 527.631 129.178 528.183 129.607C528.709 130.071 529.33 130.432 530.01 130.716C530.516 130.916 530.954 130.979 531.467 130.875C531.918 130.771 532.397 130.563 532.7 130.203C532.943 129.912 533.395 129.372 533.536 129.06C533.678 128.741 533.718 128.402 533.651 127.903C533.631 127.633 533.543 127.301 533.321 126.982H533.327Z" fill="white"/>
<path d="M565.133 118.407L559.781 112.658C559.288 112.491 559.127 112.055 558.796 111.847C558.5 111.681 558.142 111.515 557.65 111.48C557.354 111.445 557.091 111.515 556.733 111.681C556.437 111.785 556.113 111.986 555.783 112.256C555.452 112.457 555.189 112.727 554.9 113.032L536.218 132.302C536.057 132.468 535.888 132.704 535.693 132.974C535.497 133.313 535.335 133.611 535.234 133.985C535.106 134.324 535.005 134.692 535.072 135.031C535.106 135.467 535.302 135.869 535.598 136.312C536.32 137.525 537.439 138.598 538.49 139.54C541.612 142.463 545.286 145.22 549.385 145.851C553.288 146.481 556.922 145.026 559.834 142.9C561.506 141.653 563.205 140.164 564.547 138.577C568.835 133.417 570.783 124.454 565.133 118.4V118.407ZM561.81 128.651C560.799 133.001 556.551 137.725 552.223 138.744C548.09 139.623 545.434 137.441 542.677 134.754L549.351 127.869C550.726 126.449 552.23 124.897 553.834 123.311C555.142 121.96 556.288 120.783 557.502 119.467C560.03 122.12 562.558 125.451 561.81 128.651Z" fill="white"/>
</svg>
